<svg xmlns="http://www.w3.org/2000/svg" viewBox="60 0 300 420" preserveAspectRatio="xMidYMax meet"><path d="M-1000 -1000h2420v2420H-1000z" fill="#44d9e6"/><path d="M113.75 370.5c2.688-16.25 13.125-33.375 30.25-37 8-4.125 16.625-5.7 25.125-8.05 8.65-3.013 17.875-1.512 26.875-1.863h65.75c8.325 3.388 16.25 7.888 25 9.838 13.75 4.625 22.875 17.625 25.25 31.625 4.35 18.25 7.05 36.875 8.213 55.5h-208.75c3.474-16.375 1.153-33.375 2.662-50z" fill="#f90"/><path d="M167.5 325.5s1.4 19.125 5.4 22.625c4 3.588 60.125 39.125 75 3.275 8.988-21.625-7.438-22.625-7.438-22.625s-48.874-22.875-73-3.3M117.5 198s-4.275-21.25-10.675-6.412c-6.412 14.875-1.6 11.125 0 25.875s4.8 45.375 11.75 40.75c6.938-4.638 6.412-16.25-1.07-60.126M293.75 198s4.275-21.25 10.675-6.412c6.412 14.875 1.6 11.125 0 25.875s-3.2 45.375-10.15 40.75c-6.95-4.638-8.012-16.25-.535-60.126" fill="#e8c3aa"/><path d="M113.75 175.5s1.938 31.5 0 41.125c-1.737 8.65 22.375 127.5 95.5 132.5C295.5 354.3 304 166.625 304 165.375c0 0 2.712-26.25-10.15-54s-38.5-41.125-59.75-43.75c-21.375-2.675-90.25-2.675-109.5 32-9.275 16.75-10.35 77.75-10.887 75.75" fill="#efceb6"/><path d="M131.25 275.5c.536 1.105 29.875 57.375 65.875 46.75 16.875-5.012 24-4.813 37.5 0 13.5 4.8 30-11.825 51.625-54.625-15.375 41.125-45.125 85.125-70.125 81.25-26.5-4.213-71.125-17-84.75-73.25" fill="#e8c3aa"/><path d="M298.75 218s9.412-59 9.412-98.5c0-33-17.5-52.25-39.874-71.25 5.475 22.375-3.2 5.225-8.813.4-29.5-33.625-65.25-13.25-81.125-5.962-13.5 6.224-40.25 6.362-66.25 60-15.125 31.25 2.05 98.75 2.05 98.75s.49-66.75 4.688-82c2.125-7.75 5.337-17.25 20.25-26.376 21.75-13.25 35-14 57.25-12.874-10.563 2.8-18.125 1.887-24.5 4.012 26.875 2.688 43 37.625 92.625 0 7.35 17.125 29 17.625 31.375 56.625.898 14.625 6.65 41.375 2.8 77.125" fill="#604026"/><path d="M220 171.75c-1.412-5.35-14.375-13.625-22.125 1.262-17.625 34-74.5 52.375-65.625 11.375-3.262-5.512-6.538-5.95-6.85-11.237 5.2-25.75 36.125-16.75 54.875-12.175 20.375 4.912 51.5-1.02 67-1.8s47.125.12 40.5 35.375c-1.425 2.3-9.2.512-8.075 2.387 24.75 41.125-51.375 6.413-59.75-25.25" fill-opacity=".513" fill="#e8c3aa"/><path d="M132.5 184.25s5.288-8.05 18.625-9.663c18.375-2.674 26.75 4.276 28 4.563 0 0-8.413-9.363-28-6.7-19.625 2.675-18.625 11.788-18.625 11.788M195 183s-23.5 26-45.125 26c0 0 17.625 6.25 45.125-26m33.75 6.25s23.5 26 45.125 26c0 0-17.625 6.25-45.125-26m-72.5 126.25c13 12.25 29.375 21.75 47.25 24.25 11.787 1.863 24.125-.802 34-7.5 8.488-5.6 15.625-13.125 21.125-21.625-7.475 14.625-20.5 27.125-36.75 31.125-16.25 3.688-33.25-1.4-47-10.1-6.95-4.45-13.375-9.825-18.75-16.125z" fill="#e2a77f"/><path d="M186.25 163c-4.125-1.375-11.213-3.162-26.625-3.675-10.412-.35-21.875-.465-32.25 9.813 1.8-.868 5.075-2.076 6.737-2.876-2.274 3.6-4.274 1.475-6.312 4.288-5.15 7.075-3.425 21.875-3.425 21.875s-1.072-8.513 5.675-14.875l-3.538.535.534-1.513c.285-.245 4.025-.46 4.338-.688.216-.16.634-.246.87-.4l-5.74-.34 4.64-1.738 5.15-.636 1.164-.63-11.875 1.364 18.25-5.563-3.4 2.68c-2.25.75 12.1-10.16 33.25-.53 2.462 1.12 5.6 1.28 8.25 1.58.646.08 4.237-.72 4.837-.69 1.288.06-4.762-2.52-3.85-2.75 1.375-.33 6.45 2.33 6.45 1.07 0-.66-6.425-2.69-6.45-3.2-.05-.84 6.588 1.86 6.45 1.34-.427-1.56-1.637-3.82-3.2-4.34m40.07 2.42c4.162-1.28 11.238-2.92 26.625-3.12 10.425-.13 21.875-.01 32.125 10.49-1.787-.91-5.025-2.17-6.675-3.01 2.188 3.65 5.412 2.79 7.4 5.63 5 7.18 1.8 20.75 1.8 20.75s1.25-8.48-5.362-15l3.524.61-.502-1.52c-.28-.25-4.013-.54-4.325-.78-.213-.16-.628-.26-.86-.42l5.75-.21-4.6-1.825-5.125-.745-1.153-.654 7.675.36-9.237-2-1.413.04c-9.925-3.5-23.75-4.94-33.25-2.823-6.75 1.49-15.75 4.565-15.625.478.104-5 .913-5.39 3.338-6.14" fill="#936e54"/><path d="M178.75 184.25S163 171.5 145.5 186.163c0 0 .45 4.487 10.3 3.324 9.85-1.163 22.875-5.237 22.875-5.237" fill="#fff"/><path d="M161.25 178c-3.25.1-6.475.62-9.6 1.475-3.113.843-6.112 2.063-9.038 3.425-2.824 1.425-5.55 3.05-7.874 5.2-.497.476-2.438 1.988-.737 1.194 2.92-1.098 5.68-2.55 8.52-3.813 2.39-1.19 4.88-2.2 7.4-3.05.86-.25 1.71-.52 2.59-.75.63 2.57 1.4 5.3 3.35 7.2 1.52 1.29 3.6.5 5.37.28 2.36-.5 4.73-1.1 7-1.9 1.8-1.48 1.73-4.13 1.6-6.26 1.12-.21 3.11.71 4.5 1.18 1.56.68 3.1 1.45 4.46 2.49.81-.88.63-.72-1.1-2.05-4.76-3.33-10.65-4.71-16.37-4.6z"/><path d="M280 188s-4.963-8.263-18.25-10.4c-18.25-3.4-26.875 3.2-28.125 3.438 0 0 8.775-9.026 28.25-5.576s18.125 12.5 18.125 12.5" fill="#e2a77f"/><g fill="#e8c3aa"><path d="M206.25 235.5s-3 16.375-9.15 18.375c3.912 2.4 11.7 3.438 11.7 3.438s8.412-2 10.812-3.2c-5.737-6.675-6.062-18.625-6.062-18.625s-2 2.237-7.313 0" fill-opacity=".755"/><path d="M206.25 238s-4.838-10.375-10.163-8.637-5.65 10.95 10.163 8.637m6.25-1.25s6.475-9.675 11.813-7.938c5.325 1.738.87 11.95-11.813 7.938"/></g><path d="M202.5 234.25s3.2-4-2.4-6.138c-5.613-2.137-9.35-.8-8.275 3.076 1.07 3.875 2.112 5.2-2.95 4.937-5.063-.266-7.738-4.8-6.938-10.675.802-5.875 5.075-12.012 5.075-12.012s-7.537 6.412-5.9 16.875c1.638 10.412 12.313 7.2 12.313 7.2s1.687-2.376 1.337-4.538c-.925-5.625 7.475 0 7.738 1.338m13.75 1.187s-3.6-3.65 1.762-6.35 9.213-1.75 8.55 2.2c-.665 3.962-1.575 5.4 3.438 4.612 5.012-.784 7.2-5.574 5.8-11.337s-6.275-11.438-6.275-11.438 8.162 5.6 7.6 16.125c-.557 10.525-11.513 8.425-11.513 8.425s-1.924-2.187-1.8-4.374c.342-5.688-7.437.767-7.562 2.125" fill="#e2a77f"/><path d="M183.75 260.5c.833-.79 1.737-1.475 2.637-2.188.917-.683 1.863-1.325 2.85-1.925.975-.608 2-1.147 3.063-1.637.54-.23 1.086-.455 1.662-.634.28-.106.587-.174.893-.244.297-.077.615-.126.96-.136l.506-.027.57.08c.43.06.63.16.92.24.54.17 1.08.34 1.62.53 1.08.36 2.15.72 3.22 1.11 2.14.76 4.24 1.58 6.33 2.5h-.25l11.75-4.59.28-.11.31.12c2.1 1.09 4.13 2.26 6.12 3.52.97.65 1.96 1.27 2.9 1.99.46.35.95.67 1.38 1.06l1.34 1.12-1.45-.97c-.47-.338-.99-.6-1.485-.896-.997-.6-2.04-1.1-3.067-1.64-2.09-1.003-4.212-1.936-6.35-2.75l.58.02-12.01 3.85-.144.05-.11-.044c-2.23-.49-4.41-1.06-6.59-1.7-1.09-.31-2.174-.65-3.25-.985-.54-.165-1.08-.34-1.61-.52-.26-.082-.576-.205-.72-.2-.09-.01-.18-.03-.27-.05l-.345.027c-.224-.005-.465.03-.718.09-.25.04-.5.08-.755.16-.51.13-1.02.31-1.52.497-1.023.383-2.05.82-3.06 1.29-1.02.464-2.026.954-3.04 1.45l-3.06 1.5z" fill="#ffebde"/><path d="M183.75 216.75l-18.375 29.75s16.875-21.25 18.375-29.75m48.75 0l18.375 29.75S234 225.25 232.5 216.75" fill="#e2a77f"/><path d="M175 254.25s-13.75 16-15.875 16.5c-2.225.534 4.675 11.013 11.9 8.45-4.513-14.75 4.025-25 4.025-25m64.95.05s13.75 16 15.875 16.5c2.225.534-4.675 11.013-11.9 8.45 4.513-14.75-4.025-25-4.025-25" fill-opacity=".755" fill="#e8c3aa"/><path d="M210 284.25c-5.763-.646-15.875 2.138-25.625-7.3-9.85-9.425-9.188-7.388-9.188-8.925-.005-1.538 25.375-7.188 38.125-6.463 12.875.728 31.125 7.325 31.125 7.325s-8.425 16.25-33 15.375" fill="#efa695"/><path d="M166.25 265.5s9.613 2.037 13.625-1.525c7.713-6.938 15.25-8.713 15.25-8.713l13 4.213 11.887-4.213s11.8 5.738 16.5 10.65c2.35 2.426 5.263.486 10.95 1.638-1.65 2-16.25 5.525-19.5 4.175-7.75-3.225-13.375.63-19.625-.014-6.3-.64-14.75-1.92-19.125-1.6-4.275.33-18.125 1.53-23-4.6" fill="#db9079"/><path d="M188.75 284.25s23.125 5.125 38.875 0 6.05 15.625-1.204 16.125c-13.12-7.475-35.5-4.8-35.75 0-.31 4.838-13-16-1.91-16.125" fill-opacity=".755" fill="#e8c3aa"/><path d="M203.75 228s-12.625-6.625-12.35 2.325c.266 8.95-6.3 3.275-7.5-4.688-1.2-7.962 7.825-8.262 7.825-8.262s5.838 3.738 7.963 0 4.087-8.838 9.512-8.425 7.563 2.013 12.375 8.425c4.8 6.412 13.25 4.112 11.863 10.412-1.35 6.3-3.75 7.088-4.925 4.538-3.688-7.987-8.688-10.75-9.75-7.512-1.064 3.25-10.95 13.75-15 3.175" fill="#e8c3aa"/><path d="M186.25 220.5c.24-.438.55-.84.897-1.21.354-.362.742-.705 1.182-.98.43-.28.9-.515 1.41-.67.25-.07.5-.172.77-.197.26-.034.52-.098.79-.104.53-.02 1.07-.02 1.6.08.54.04 1.03.24 1.56.36.49.17.98.38 1.47.59l1.38.75-.57-.16c.08.01.27-.02.43-.04.16-.02.32-.08.49-.12.34-.06.65-.24.98-.37.33-.14.61-.37.93-.55.33-.17.56-.48.85-.71.28-.25.56-.51.77-.82l.7-.91c.13-.15.19-.34.29-.51l.27-.52.55-1.04-.35 1.13-.18.57c-.07.18-.1.39-.2.56l-.55 1.08c-.16.372-.4.71-.66 1.03-.26.312-.46.7-.8.96-.32.28-.6.602-.96.843-.37.226-.71.51-1.12.68-.21.09-.4.2-.62.27-.23.07-.42.15-.73.2l-.195.03-.38-.19-1.136-.85c-.4-.24-.8-.49-1.214-.71-.425-.17-.842-.42-1.3-.513-.44-.157-.894-.226-1.36-.28-.23-.03-.462-.006-.7-.01-.232-.017-.46.04-.7.07-.46.07-.92.217-1.36.42-.44.19-.85.457-1.24.753-.385.31-.745.652-1.05 1.05" fill="#ffebde"/><path d="M203.75 165.5s-2.925 51-7.5 49.5c-4.588-1.487-8.05-1.047-5.65-5.537s15.125-39 13.125-43.875" fill="#e8c3aa"/><path d="M233.75 186.75s17.125-12.75 36 1.913c0 0-.485 4.487-11.137 3.324-10.65-1.163-24.875-5.237-24.875-5.237" fill="#fff"/><path d="M250 180.5c-6.05-.118-12.313 1.4-17.125 5.175-.785.574-.815.585-.568 1.013.22.38.183.42.446.28 2.812-1.974 6.087-3.187 9.45-3.812-.194 2.175-.272 4.813 1.45 6.438 1.537.77 3.324.972 4.974 1.462 2.425.526 4.9 1.173 7.388.966 2.462-.786 3.475-3.512 4.288-5.724.485-1.613.39-1.575 1.612-1.195 2.837 1.03 5.613 2.212 8.3 3.575 2.638 1.11 5.15 2.562 7.9 3.412-2.563-2.575-5.525-4.737-8.787-6.325-2.213-1.172-4.575-2.062-6.925-2.937-2.876-.968-5.85-1.675-8.863-2.063-1.17-.094-2.338-.24-3.513-.257z"/><path d="M187.5 269.25s9.563 1.7 20 1.913c12.088.247 26.75-.263 26.75-.263" fill="#fcc8be"/><path d="M108.75 198c-1.412.13-1.475 1.963-.226 2.45 1.725 1.7 2.775 3.975 3.35 6.3-1.413.436-1.525 2.362-2.075 3.55-.44 1.487-.65 3.025-.68 4.575-.62 1.16.23 2.5.41 3.7 1.03 3.762 2.42 7.412 3.45 11.175.85 1.5 3.01-.106 2.07-1.462-1.04-3.838-2.57-7.55-3.47-11.426-.23-2.775.11-5.65 1.41-8.137 1.01.08 1.71-1.042 1.32-1.95-.66-3.237-2.15-6.463-4.75-8.575-.24-.16-.54-.234-.83-.196zm197.5 3.75c-2.112 1.052-1.762 3.762-2.8 5.55-.522 2.375-1.775 4.563-1.95 7.025-1.174 2.088-.398 4.575-1.07 6.738-.95 1.837-1.61 3.825-1.424 5.912-.03 1.863.01 3.738-.006 5.6-2.15 4.913-3.475 10.138-4.738 15.375-.835 2.588 2.938 2.125 2.725-.134.025-2.337 1.078-4.637 1.625-6.925.812-2.01.98-4.43 2.413-6.08 1.05-1.77-.07-3.85.388-5.74-.093-2.25-.212-4.67 1.082-6.63 1.462-2.85 2.95-6.09 2.062-9.35-.12-2.32 1.363-4.34 1.638-6.6.62-1.31 2.337-4.15.06-4.67zm-6.25 25v7.5" fill="#f4d3bd"/><path d="M175 336.75l-10.688-8.838s-5.387 37.626 51.75 40.75c57.25 3.088 37.875-39 37.875-39l-5.75 5.45s6.25 26.375-34.75 23.375c-41.125-3.087-37.875-19.375-38.5-21.625" fill="#ff9b0b"/><path d="M225 369.25c-13.875.348-28.125-1.087-40.75-6.987-10.163-4.613-18.625-13.75-20.75-24.875-.59-3.125-.862-6.35-.375-9.513 3.713 3.025 7.612 5.925 11.2 9.025-.004 4.638 2.1 9.175 5.85 11.975 8.037 6.1 18.375 7.7 28.125 8.875 10.125.978 21.125 1.475 30.25-3.563 6.675-3.537 10.162-11.637 8.65-19 2.013-1.975 4.037-3.937 6.05-5.912 3.663 8.525 5.138 19.125.188 27.5-5.088 8.325-15.25 11.313-24.5 12.2-1.35.136-2.713.23-4.063.294zm-.04-.8c9.426-.49 20-2.376 26.376-9.99 5.987-7.386 5.337-18 2.212-26.374-.362-2.687-1.962.446-3.024 1.108-.7 1.067-2.675 1.712-2.275 3.137 1.12 7.65-3.07 15.63-10.04 19-10.06 5-21.75 4.17-32.63 2.94-9.45-1.35-19.63-3.19-27-9.65-3.25-2.85-5.04-7.09-5.07-11.37l-9.74-7.76c-1.12 12.17 6.26 24 16.62 29.88 12.49 7.37 27.37 9.12 41.62 9.19.96-.01 1.92-.04 2.88-.08z" fill="#af6809"/><path d="M125 365.5l-3.313 54.25h4.7zm161.25 0l-3.313 54.25h4.688z" fill="#cc7400"/></svg>