<!-- Created with Inkscape (http://www.inkscape.org/) -->
<svg xmlns:rdf="http://www.w3.org/1999/02/22-rdf-syntax-ns#" xmlns="http://www.w3.org/2000/svg" version="1.1" xmlns:cc="http://creativecommons.org/ns#" xmlns:dc="http://purl.org/dc/elements/1.1/" viewBox="0 0 802 162">
<title>envelops</title>
<defs>
<filter id="filter3760" color-interpolation-filters="sRGB">
<feGaussianBlur stdDeviation="7.1121505"/>
</filter>
<filter id="filter3782" color-interpolation-filters="sRGB">
<feGaussianBlur stdDeviation="7.8673084"/>
</filter>
</defs>
<metadata>
<rdf:RDF>
<cc:Work rdf:about="">
<dc:format>image/svg+xml</dc:format>
<dc:type rdf:resource="http://purl.org/dc/dcmitype/StillImage"/>
<dc:title>envelops</dc:title>
<dc:subject>
<rdf:Bag>
<rdf:li>email</rdf:li>
<rdf:li>envelop</rdf:li>
<rdf:li>message</rdf:li>
<rdf:li>greeting</rdf:li>
<rdf:li>ping</rdf:li>
<rdf:li>sms</rdf:li>
</rdf:Bag>
</dc:subject>
<dc:date>2012-12-31</dc:date>
<dc:creator>
<cc:Agent>
<dc:title>netalloy</dc:title>
</cc:Agent>
</dc:creator>
<cc:license rdf:resource="http://creativecommons.org/licenses/publicdomain/"/>
</cc:Work>
<cc:License rdf:about="http://creativecommons.org/licenses/publicdomain/">
<cc:permits rdf:resource="http://creativecommons.org/ns#Reproduction"/>
<cc:permits rdf:resource="http://creativecommons.org/ns#Distribution"/>
<cc:permits rdf:resource="http://creativecommons.org/ns#DerivativeWorks"/>
</cc:License>
</rdf:RDF>
</metadata>
<g transform="translate(59.043473,-789.61804)">
<g stroke-miterlimit="4" transform="matrix(0.72107212,0,0,0.73928943,-1.3254772,222.12614)">
<g transform="matrix(0.28767162,-0.08181924,0.08594058,0.302162,68.894251,653.1449)">
<rect stroke-width="0" transform="matrix(0.96592583,0.25881905,-0.25881905,0.96592583,0,0)" ry="11.6" width="460" y="566" x="-203" height="267" fill="#4d4d4d"/>
<path d="m-38.3,373,862,0,0,453-862,0z" transform="matrix(0.48296291,0.12940952,-0.12940952,0.48296291,-266.88397,346.73923)" filter="url(#filter3782)" stroke-width="0" fill="#FFF"/>
<path d="M-57.1,341,840,347c-79,94-448,312-448,312s-223-150-449-318z" transform="matrix(0.48296291,0.12940952,-0.12940952,0.48296291,-266.88397,346.73923)" filter="url(#filter3760)" stroke-width="0" fill="#4d4d4d"/>
<path d="M-337,504,94.7,620c-57.2,21.7-248,68.6-248,68.6l-184-184z" stroke-width="0" fill="#FFF"/>
<path opacity="0.12682926" stroke-linejoin="miter" d="M-402,747-159,701,25.6,856" stroke="#4d4d4d" stroke-linecap="butt" stroke-dasharray="none" stroke-width="6.30000019" fill="none"/>
</g>
<g transform="matrix(0.29908084,0,0,0.31414592,85.201491,713.49179)">
<rect stroke-width="0" transform="matrix(0.96592583,0.25881905,-0.25881905,0.96592583,0,0)" ry="11.6" width="460" y="566" x="-203" height="267" fill="#4d4d4d"/>
<path d="m-38.3,373,862,0,0,453-862,0z" transform="matrix(0.48296291,0.12940952,-0.12940952,0.48296291,-266.88397,346.73923)" filter="url(#filter3782)" stroke-width="0" fill="#F95"/>
<path d="M-57.1,341,840,347c-79,94-448,312-448,312s-223-150-449-318z" transform="matrix(0.48296291,0.12940952,-0.12940952,0.48296291,-266.88397,346.73923)" filter="url(#filter3760)" stroke-width="0" fill="#4d4d4d"/>
<path d="M-337,504,94.7,620c-57.2,21.7-248,68.6-248,68.6l-184-184z" stroke-width="0" fill="#F95"/>
<path opacity="0.12682926" stroke-linejoin="miter" d="M-402,747-159,701,25.6,856" stroke="#4d4d4d" stroke-linecap="butt" stroke-dasharray="none" stroke-width="6.30000019" fill="none"/>
</g>
<g transform="matrix(0.24746937,-0.16795314,0.17641316,0.25993472,-82.595904,624.31551)">
<rect stroke-width="0" transform="matrix(0.96592583,0.25881905,-0.25881905,0.96592583,0,0)" ry="11.6" width="460" y="566" x="-203" height="267" fill="#4d4d4d"/>
<path d="m-38.3,373,862,0,0,453-862,0z" transform="matrix(0.48296291,0.12940952,-0.12940952,0.48296291,-266.88397,346.73923)" filter="url(#filter3782)" stroke-width="0" fill="#ff7f2a"/>
<path d="M-57.1,341,840,347c-79,94-448,312-448,312s-223-150-449-318z" transform="matrix(0.48296291,0.12940952,-0.12940952,0.48296291,-266.88397,346.73923)" filter="url(#filter3760)" stroke-width="0" fill="#4d4d4d"/>
<path d="M-337,504,94.7,620c-57.2,21.7-248,68.6-248,68.6l-184-184z" stroke-width="0" fill="#ff7f2a"/>
<path opacity="0.12682926" stroke-linejoin="miter" d="M-402,747-159,701,25.6,856" stroke="#4d4d4d" stroke-linecap="butt" stroke-dasharray="none" stroke-width="6.30000019" fill="none"/>
</g>
</g>
<text style="writing-mode:lr-tb;letter-spacing:0px;text-anchor:start;word-spacing:0px;text-align:start;" font-weight="normal" fill-opacity="0.6" xml:space="preserve" font-size="40px" font-style="normal" line-height="125%" font-stretch="normal" font-variant="normal" y="842.94586" x="153.41631" font-family="American Typewriter" fill="#000000"><tspan style="writing-mode:lr-tb;text-anchor:start;text-align:start;" font-weight="normal" fill-opacity="0.6" font-size="55px" font-style="normal" line-height="125%" font-stretch="normal" font-variant="normal" y="842.94586" x="153.41631" font-family="Nanum Pen Script" fill="#000000">10 dicas para fazer um</tspan></text>
<text style="letter-spacing:0px;word-spacing:0px;" font-weight="normal" xml:space="preserve" font-size="40px" line-height="125%" font-style="normal" y="891.36218" x="150" font-family="Sans" fill="#46605b"><tspan style="writing-mode:lr-tb;text-anchor:start;text-align:start;" font-weight="normal" font-size="65px" font-style="normal" line-height="125%" font-stretch="normal" font-variant="normal" y="891.36218" x="150" font-family="Optima" fill="#46605b">EMAIL RESPONSIVO</tspan></text>
</g>
</svg>
