<style>
	#svg-req-condicional {
		color: black;
		margin: 4em auto 0;
		display: block;
		width: 96%;
	}
	#svg-req-condicional text {
		color: black;
		font-family: Arial, sans-serif;
		font-size: 28px;
		line-height: 1;
		letter-spacing:0px;
		word-spacing:0px;
	}
</style>
<svg id="svg-req-condicional" viewBox="0 0 897 361" preserveAspectRatio="xMinYMin meet">
	<g transform="translate(-12.857138,-530.64789)">
	<rect height="361" width="187" y="531" x="723" fill="#4d4d4d"/>
	<text y="582.36224" x="233.99998"><tspan y="582.36224" x="233.99998">Não quero atualizar</tspan></text>
	<path style="baseline-shift:baseline;block-progression:tb;color:#000000;direction:ltr;text-indent:0;text-align:start;enable-background:accumulate;text-transform:none;" fill="#000" d="m234,596,0,9.09,443,0,0-9.09-443,0z"/>
	<path style="marker-start:none;" d="m666,600-9.07,9.07,31.8-9.07-31.8-9.07,9.07,9.07z" fill-rule="evenodd" stroke="#000" stroke-width="1.81468868pt"/>
	<path style="baseline-shift:baseline;block-progression:tb;color:#000000;direction:ltr;text-indent:0;text-align:start;enable-background:accumulate;text-transform:none;" fill="#000" d="m243,632,0,9.09,443,0,0-9.09-443,0z"/>
	<path style="marker-start:none;" d="m254,636,9.07-9.07-31.8,9.07,31.8,9.07-9.07-9.07z" fill-rule="evenodd" stroke="#000" stroke-width="1.81468868pt"/>
	<text y="668.36224" x="684.73663" xml:space="preserve"><tspan style="text-anchor:end;text-align:end;" y="668.36224" x="684.73663">Tudo bem, não mudou</tspan></text>
	<text y="762.36224" x="233.99998" xml:space="preserve"><tspan y="762.36224" x="233.99998">Agora quero atualizar</tspan></text>
	<path style="baseline-shift:baseline;block-progression:tb;color:#000000;direction:ltr;text-indent:0;text-align:start;enable-background:accumulate;text-transform:none;" fill="#000" d="m234,776,0,9.09,443,0,0-9.09-443,0z"/>
	<path style="marker-start:none;" d="m666,780-9.07,9.07,31.8-9.07-31.8-9.07,9.07,9.07z" fill-rule="evenodd" stroke="#000" stroke-width="1.81468868pt"/>
	<path style="baseline-shift:baseline;block-progression:tb;color:#000000;direction:ltr;text-indent:0;text-align:start;enable-background:accumulate;text-transform:none;" fill="#000" d="m243,812,0,9.09,443,0,0-9.09-443,0z"/>
	<path style="marker-start:none;" d="m254,816,9.07-9.07-31.8,9.07,31.8,9.07-9.07-9.07z" fill-rule="evenodd" stroke="#000" stroke-width="1.81468868pt"/>
	<text y="848.36224" x="684.73663" line-height="100%"><tspan style="text-anchor:end;text-align:end;" y="848.36224" x="684.73663">Então toma o manifesto</tspan></text>
	<path d="m181,384c0,45.4-39,82.1-87.1,82.1s-87.1-36.8-87.1-82.1c0-45.4,39-82.1,87.1-82.1s87.1,36.8,87.1,82.1z" transform="translate(5.7142857,313.79075)" fill="#FF0"/>
	<path d="m65.7,372c0,4.73-4.16,8.57-9.29,8.57s-9.29-3.84-9.29-8.57,4.16-8.57,9.29-8.57,9.29,3.84,9.29,8.57z" transform="translate(2,302.36218)" fill="#4d4d4d"/>
	<path d="m65.7,372c0,4.73-4.16,8.57-9.29,8.57s-9.29-3.84-9.29-8.57,4.16-8.57,9.29-8.57,9.29,3.84,9.29,8.57z" transform="translate(80,302.36218)" fill="#4d4d4d"/>
	<path d="m181,384c0,45.4-39,82.1-87.1,82.1s-87.1-36.8-87.1-82.1c0-0.675,0.00884-1.35,0.0265-2.03" transform="matrix(0.55871001,0,0,0.55871001,45.776899,499.68405)" fill="#4d4d4d"/>
	<rect height="30" width="159" y="566" x="737" fill="#CCC"/>
	<rect height="30" width="159" y="606" x="737" fill="#CCC"/>
	<rect height="30" width="159" y="646" x="737" fill="#CCC"/>
	<path d="m65.7,372c0,4.73-4.16,8.57-9.29,8.57s-9.29-3.84-9.29-8.57,4.16-8.57,9.29-8.57,9.29,3.84,9.29,8.57z" transform="translate(760.00003,466.36218)" fill="#CCC"/>
	</g>
</svg>
