<svg xmlns:rdf="http://www.w3.org/1999/02/22-rdf-syntax-ns#" xmlns="http://www.w3.org/2000/svg" height="425" width="425" version="1.1" xmlns:cc="http://creativecommons.org/ns#" xmlns:dc="http://purl.org/dc/elements/1.1/" viewBox="0 0 340.00001 340.00002">
<metadata>
<rdf:RDF>
<cc:Work rdf:about="">
<dc:format>image/svg+xml</dc:format>
<dc:type rdf:resource="http://purl.org/dc/dcmitype/StillImage"/>
<dc:title/>
</cc:Work>
</rdf:RDF>
</metadata>
<path fill-rule="nonzero" fill="#0d1109" d="m27.2,75.5-0.623,0c-0.007,3.18-2.58,5.75-5.76,5.76-3.18-0.007-5.75-2.58-5.76-5.76,0.007-3.18,2.58-5.75,5.76-5.76,3.18,0.005,5.75,2.58,5.76,5.76h0.623,0.623c-0.002-3.87-3.14-7-7-7-3.87,0-7,3.14-7,7,0.002,3.87,3.14,7,7,7,3.87-0.002,7-3.14,7-7h-0.623z"/>
<path fill-rule="nonzero" fill="#0d1109" d="m49.6,129c-0.0116-0.0282-0.399-1.1-1.19-2.29-0.794-1.18-2-2.53-3.74-2.98-1.4-0.345-5.54-1.94-9.66-4.12-4.13-2.17-8.3-5-9.84-7.6-1.68-2.81-3.27-5.62-4.64-7.97s-2.48-4.23-3.29-5.23c-0.36-0.447-0.465-0.789-0.462-0.968,0.0116-0.189,0.0548-0.286,0.309-0.45,0.252-0.153,0.721-0.274,1.34-0.271,0.266,0,0.556,0.0199,0.87,0.0648,0.428,0.0465,1.27,0.508,2.16,1.21,1.35,1.04,2.88,2.57,4.06,3.83,0.591,0.629,1.1,1.19,1.45,1.6,0.357,0.407,0.563,0.651,0.563,0.651l0.971,1.15,0.126-1.5c0-0.0149,0.0332-0.4,0.0332-1.04-0.003-1.58-0.189-4.72-1.6-7.55-0.863-1.72-2.66-5.99-4.23-10.1-0.785-2.08-1.52-4.13-2.05-5.83-0.533-1.69-0.857-3.08-0.847-3.61l0.008-0.131,0.002-0.0133-0.169-0.0498,0.158,0.078,0.0116-0.0282-0.169-0.0498,0.158,0.078c0.226-0.453,0.591-0.93,0.985-1.27,0.394-0.344,0.807-0.52,1.07-0.513,0.223,0.01,0.39,0.0614,0.638,0.372,0.106,0.141,0.375,0.561,0.724,1.14,1.23,2.03,3.57,6.14,5.6,9.74,1.02,1.8,1.95,3.47,2.64,4.69,0.684,1.22,1.11,1.99,1.12,1.99l1.14-0.487c-0.002,0-0.098-0.314-0.244-0.837-0.443-1.56-1.32-5.03-1.32-7.1-0.002-0.511,0.0581-0.932,0.148-1.16l0.115-0.204,0.0515-0.0282,0.0797-0.007c0.317-0.0216,1.12,0.329,1.97,0.945,1.3,0.91,2.82,2.32,4,3.5,0.588,0.588,1.09,1.12,1.45,1.5,0.359,0.384,0.565,0.614,0.566,0.614l0.463-0.415,0.41-0.468-0.0515-0.0465c-0.123-0.113-0.452-0.428-0.731-0.784-0.287-0.345-0.478-0.767-0.457-0.87l0.0199-0.0482c0.0349-0.0332,0.193-0.123,0.523-0.168l0.428-0.0299c1.02-0.007,2.16,0.516,3.35,1.27,1.19,0.749,2.42,1.7,3.7,2.43,1.3,0.742,3.82,2.24,6.08,3.94,1.13,0.854,2.2,1.76,3.01,2.64,0.815,0.875,1.36,1.73,1.5,2.39,0.174,0.78,0.196,1.45,0.208,2.12,0.0183,0.991,0.002,2.02,0.551,3.16,0.55,1.13,1.61,2.29,3.62,3.72,2.6,1.86,3.97,3.15,4.68,3.94,0.354,0.397,0.54,0.671,0.633,0.829l0.0764,0.149,0.005,0.01,0.372-0.126-0.38,0.0947,0.008,0.0316,0.372-0.126-0.38,0.0947,1.21-0.299c-0.0847-0.272-0.571-1.82-5.86-5.61-1.28-0.917-2.11-1.68-2.63-2.34-0.777-0.991-0.925-1.7-0.988-2.6-0.0565-0.888,0.0382-1.96-0.262-3.32-0.236-1.03-0.913-2-1.8-2.97-2.66-2.87-7.39-5.68-9.38-6.82-1.17-0.671-2.4-1.61-3.66-2.41-1.26-0.789-2.58-1.46-4.01-1.46-0.201,0-0.404,0.0133-0.606,0.0415-0.468,0.0697-0.85,0.199-1.15,0.455-0.309,0.251-0.468,0.653-0.458,0.995,0.003,0.394,0.143,0.721,0.306,1.02,0.495,0.878,1.34,1.59,1.36,1.62l0.875-0.883c-0.008-0.008-1.53-1.71-3.37-3.42-0.92-0.858-1.92-1.72-2.86-2.38-0.955-0.654-1.81-1.15-2.69-1.17l-0.284,0.0232c-0.277,0.0432-0.538,0.184-0.726,0.374-0.282,0.287-0.422,0.639-0.51,1.01-0.0863,0.377-0.12,0.79-0.12,1.24,0.003,1.58,0.41,3.63,0.81,5.31s0.8,2.98,0.804,2.99l0.594-0.183,0.545-0.302c-0.002-0.002-2.25-4.04-4.64-8.26-1.2-2.11-2.43-4.27-3.43-6-0.501-0.863-0.948-1.62-1.31-2.21-0.36-0.594-0.619-1.01-0.794-1.24-0.412-0.568-1.03-0.88-1.63-0.87-0.722,0.007-1.35,0.362-1.89,0.814-0.533,0.46-0.98,1.04-1.29,1.65-0.116,0.246-0.126,0.45-0.13,0.674,0.008,0.875,0.364,2.23,0.903,3.98,1.63,5.21,5,13.4,6.35,16.2,1.27,2.53,1.47,5.51,1.47,6.99,0,0.297-0.008,0.533-0.0149,0.694-0.008,0.161-0.0149,0.237-0.0149,0.237l0.621,0.0515,0.477-0.4c-0.007-0.008-1.51-1.8-3.37-3.65-0.925-0.927-1.94-1.87-2.9-2.62-0.975-0.742-1.86-1.31-2.75-1.45-0.367-0.0531-0.716-0.078-1.05-0.078-0.764,0.002-1.43,0.131-1.96,0.44-0.535,0.296-0.935,0.872-0.925,1.53,0.005,0.591,0.272,1.16,0.734,1.75,0.696,0.867,1.83,2.74,3.18,5.08,1.36,2.34,2.95,5.16,4.65,7.98,1.84,3.03,6.11,5.82,10.3,8.06,4.23,2.23,8.34,3.82,9.94,4.22,1.26,0.306,2.3,1.4,3.01,2.46,0.354,0.53,0.621,1.04,0.799,1.42,0.088,0.189,0.154,0.344,0.198,0.45l0.0614,0.154,1.17-0.425z"/>
<path fill-rule="nonzero" fill="#808080" d="m162,75.1-0.83,0c0,3.13-1.27,5.96-3.32,8.02-2.05,2.05-4.88,3.32-8.01,3.32s-5.96-1.27-8.01-3.32-3.32-4.88-3.32-8.02c0-3.13,1.27-5.96,3.32-8.01s4.88-3.32,8.01-3.32,5.96,1.27,8.01,3.32,3.32,4.88,3.32,8.01h0.83,0.83c0-7.18-5.81-13-13-13-7.18,0-13,5.82-13,13s5.81,13,13,13c7.18,0,13-5.82,13-13h-0.83z"/>
<path fill-rule="nonzero" fill="#0d1109" d="m156,75.1-0.623,0c0,3.18-2.57,5.75-5.75,5.76-3.18-0.005-5.75-2.57-5.76-5.76,0.007-3.18,2.58-5.75,5.76-5.76,3.18,0.007,5.75,2.58,5.75,5.76h0.623,0.623c0-3.87-3.13-7-7-7-3.87,0.002-7,3.13-7,7,0.002,3.87,3.14,7,7,7,3.87,0,6.99-3.13,7-7h-0.623z"/>
<path fill-rule="nonzero" fill="#0d1109" d="m178,129c-0.0116-0.0282-0.397-1.1-1.19-2.29-0.792-1.18-2-2.53-3.74-2.98-1.4-0.347-5.54-1.94-9.66-4.12-4.13-2.17-8.3-5-9.84-7.6-1.68-2.8-3.28-5.62-4.64-7.97-1.37-2.35-2.49-4.23-3.29-5.24-0.359-0.445-0.463-0.785-0.46-0.965,0.0116-0.189,0.0548-0.286,0.309-0.45,0.254-0.153,0.722-0.274,1.34-0.271,0.264,0,0.555,0.0199,0.867,0.0648,0.427,0.0481,1.27,0.506,2.16,1.21,1.35,1.04,2.88,2.57,4.06,3.83,0.591,0.631,1.1,1.2,1.45,1.6,0.357,0.405,0.563,0.649,0.563,0.651l0.973,1.15,0.125-1.5c0.002-0.0149,0.0316-0.395,0.0316-1.02-0.003-1.58-0.186-4.73-1.6-7.56-0.86-1.72-2.66-5.99-4.23-10.1-0.785-2.08-1.52-4.13-2.05-5.83-0.533-1.69-0.857-3.08-0.847-3.61l0.008-0.133,0.002-0.0133-0.168-0.0498,0.156,0.078,0.0116-0.0282-0.168-0.0498,0.156,0.078c0.226-0.453,0.589-0.928,0.983-1.26,0.394-0.344,0.807-0.52,1.08-0.513,0.223,0.01,0.39,0.0614,0.638,0.372,0.106,0.141,0.375,0.561,0.724,1.14,1.23,2.03,3.57,6.14,5.61,9.74,1.02,1.8,1.95,3.47,2.64,4.69,0.686,1.22,1.11,1.99,1.12,1.99l1.14-0.487c0-0.002-0.0963-0.314-0.244-0.839-0.443-1.56-1.32-5.03-1.32-7.1-0.003-0.51,0.0581-0.93,0.148-1.16l0.115-0.204,0.0515-0.0282,0.0797-0.005c0.317-0.0216,1.12,0.329,1.97,0.945,1.3,0.91,2.82,2.32,3.99,3.5,0.589,0.588,1.09,1.12,1.45,1.5,0.357,0.382,0.565,0.614,0.565,0.614l0.463-0.415,0.412-0.468-0.0515-0.0465c-0.125-0.113-0.452-0.428-0.729-0.784-0.289-0.345-0.478-0.767-0.458-0.872l0.0199-0.0448c0.0349-0.0349,0.191-0.123,0.523-0.169l0.428-0.0299c1.02-0.007,2.16,0.518,3.35,1.27,1.19,0.749,2.42,1.7,3.7,2.43,1.3,0.742,3.82,2.23,6.08,3.94,1.13,0.854,2.2,1.76,3.01,2.64,0.815,0.875,1.36,1.73,1.5,2.39,0.173,0.784,0.196,1.46,0.208,2.13,0.0199,0.991,0.003,2.02,0.551,3.15,0.55,1.13,1.61,2.29,3.61,3.72,2.6,1.86,3.97,3.15,4.68,3.94,0.352,0.397,0.538,0.671,0.631,0.827l0.078,0.149,0.003,0.01,0.375-0.126-0.384,0.0947,0.008,0.0315,0.375-0.126-0.384,0.0947,1.21-0.299c-0.0864-0.274-0.573-1.81-5.87-5.61-1.28-0.917-2.11-1.68-2.63-2.34-0.777-0.991-0.925-1.7-0.986-2.6-0.0581-0.89,0.0365-1.96-0.266-3.33-0.234-1.03-0.912-2-1.8-2.97-2.66-2.87-7.39-5.67-9.38-6.82-1.18-0.669-2.4-1.61-3.66-2.41-1.26-0.789-2.58-1.46-4.01-1.46-0.201,0-0.404,0.0149-0.604,0.0432-0.468,0.0681-0.85,0.198-1.15,0.453-0.307,0.251-0.467,0.653-0.458,0.993,0.005,0.394,0.143,0.722,0.306,1.02,0.495,0.878,1.34,1.59,1.36,1.62l0.875-0.883c-0.008-0.008-1.53-1.71-3.37-3.42-0.918-0.857-1.92-1.72-2.86-2.38-0.955-0.654-1.81-1.15-2.69-1.17l-0.286,0.0233c-0.277,0.0432-0.538,0.184-0.724,0.374-0.284,0.286-0.422,0.638-0.511,1.01-0.0864,0.377-0.118,0.789-0.118,1.24,0.002,1.58,0.41,3.63,0.81,5.32,0.402,1.68,0.802,2.98,0.805,2.99l0.594-0.183,0.545-0.304s-2.25-4.04-4.64-8.26c-1.2-2.11-2.43-4.27-3.43-6-0.501-0.863-0.946-1.62-1.31-2.21-0.359-0.593-0.618-1-0.794-1.24-0.413-0.57-1.03-0.88-1.63-0.87-0.724,0.007-1.35,0.359-1.89,0.812-0.535,0.46-0.981,1.04-1.29,1.65-0.115,0.244-0.126,0.448-0.13,0.674,0.008,0.873,0.364,2.23,0.903,3.98,1.63,5.21,5,13.5,6.35,16.2,1.27,2.54,1.47,5.53,1.47,7.01,0,0.294-0.007,0.528-0.0133,0.686-0.008,0.158-0.0149,0.234-0.0149,0.234l0.621,0.0515,0.477-0.4c-0.007-0.008-1.52-1.8-3.37-3.65-0.927-0.927-1.94-1.87-2.9-2.62-0.975-0.742-1.86-1.31-2.75-1.45-0.365-0.0515-0.714-0.0764-1.04-0.0764-0.766,0.002-1.43,0.131-1.97,0.44-0.535,0.296-0.938,0.872-0.927,1.53,0.003,0.591,0.271,1.16,0.732,1.74,0.697,0.867,1.83,2.74,3.18,5.08,1.36,2.34,2.95,5.16,4.65,7.98,1.84,3.03,6.11,5.82,10.3,8.06,4.22,2.23,8.34,3.82,9.94,4.23,1.26,0.306,2.3,1.39,3.01,2.46,0.352,0.53,0.621,1.04,0.797,1.42,0.0897,0.188,0.154,0.344,0.198,0.448l0.0614,0.156,1.17-0.425z"/>
<path d="m277,277-17,3.69-0.468-2.08-11.4,5.98,12.9,0.528-0.463-2.08s15.8-3.49,16.9-3.67z" fill-rule="nonzero" fill="#999"/>
<path fill-rule="nonzero" fill="#0d1109" d="m289,276-0.631,0c0,3.18-2.57,5.75-5.75,5.75-3.19-0.005-5.76-2.58-5.76-5.75,0-3.18,2.57-5.75,5.76-5.76,3.17,0.005,5.75,2.57,5.75,5.76h0.631,0.614c0-3.87-3.14-7-6.99-7-3.87,0-7.01,3.13-7.01,7s3.14,7,7.01,7c3.85,0,6.99-3.13,6.99-7h-0.614z"/>
<path fill-rule="nonzero" fill="#0d1109" d="m312,330c0-0.0282-0.399-1.1-1.18-2.29-0.797-1.18-2.01-2.53-3.75-2.98-1.39-0.347-5.53-1.94-9.66-4.12-4.13-2.17-8.3-5-9.83-7.6-1.69-2.81-3.29-5.62-4.65-7.97s-2.47-4.23-3.29-5.23c-0.349-0.445-0.465-0.785-0.448-0.965,0-0.189,0.0498-0.286,0.299-0.452,0.249-0.151,0.731-0.272,1.33-0.271,0.282,0,0.565,0.0216,0.88,0.0664,0.432,0.0481,1.28,0.508,2.16,1.21,1.35,1.04,2.89,2.57,4.07,3.83,0.581,0.629,1.1,1.19,1.44,1.6,0.365,0.405,0.565,0.649,0.565,0.649l0.963,1.15,0.133-1.5c0-0.0149,0.0332-0.404,0.0332-1.05,0-1.59-0.183-4.72-1.59-7.54-0.863-1.72-2.66-5.98-4.23-10.1-0.78-2.08-1.51-4.13-2.04-5.83-0.531-1.69-0.863-3.08-0.847-3.61v-0.131l0.0166-0.0133-0.183-0.0498,0.166,0.0797,0.0166-0.0299-0.183-0.0498,0.166,0.0797v-0.005c0.216-0.452,0.581-0.928,0.98-1.26,0.399-0.342,0.814-0.52,1.08-0.513,0.216,0.01,0.382,0.0614,0.631,0.372,0.0996,0.143,0.382,0.563,0.731,1.14,1.23,2.03,3.57,6.14,5.6,9.74,1.01,1.8,1.96,3.47,2.64,4.69,0.681,1.22,1.11,1.99,1.11,1.99l1.15-0.487c0-0.002-0.0996-0.314-0.249-0.837-0.432-1.56-1.31-5.02-1.31-7.1,0-0.511,0.0498-0.933,0.149-1.17l0.116-0.204,0.0498-0.0299,0.083-0.005c0.316-0.0216,1.11,0.329,1.98,0.943,1.3,0.912,2.81,2.32,3.99,3.5,0.598,0.589,1.1,1.12,1.46,1.5,0.349,0.382,0.565,0.614,0.565,0.614l0.465-0.415,0.399-0.468-0.0498-0.0465c-0.116-0.113-0.448-0.428-0.731-0.784-0.282-0.347-0.482-0.769-0.448-0.873l0.0166-0.0448c0.0332-0.0332,0.183-0.123,0.515-0.168l0.432-0.0299c1.01-0.007,2.16,0.516,3.35,1.27,1.2,0.747,2.42,1.7,3.7,2.43,1.3,0.746,3.82,2.24,6.08,3.95,1.13,0.854,2.19,1.76,3.01,2.64,0.814,0.875,1.36,1.73,1.49,2.39,0.183,0.78,0.199,1.45,0.216,2.12,0.0166,0.991,0,2.02,0.548,3.16,0.548,1.13,1.61,2.29,3.62,3.72,2.59,1.86,3.97,3.15,4.67,3.94,0.365,0.397,0.548,0.671,0.631,0.827l0.083,0.151v0.008l0.382-0.126-0.382,0.0947v0.0315l0.382-0.126-0.382,0.0947,1.2-0.299c-0.083-0.274-0.565-1.81-5.86-5.61-1.28-0.917-2.11-1.68-2.62-2.34-0.78-0.991-0.93-1.7-0.996-2.6-0.0498-0.888,0.0498-1.96-0.266-3.32-0.232-1.03-0.913-2-1.79-2.96-2.66-2.87-7.39-5.68-9.38-6.82-1.18-0.669-2.39-1.61-3.65-2.4-1.26-0.789-2.59-1.46-4.02-1.46-0.199,0-0.399,0.0133-0.598,0.0415-0.482,0.0681-0.863,0.198-1.16,0.453-0.299,0.251-0.465,0.653-0.448,0.993,0,0.395,0.133,0.722,0.299,1.02,0.498,0.878,1.33,1.59,1.36,1.62l0.863-0.883c0-0.008-1.53-1.71-3.35-3.42-0.93-0.86-1.93-1.72-2.86-2.38-0.963-0.654-1.81-1.15-2.69-1.17l-0.282,0.0216c-0.282,0.0448-0.548,0.186-0.731,0.375-0.282,0.287-0.415,0.639-0.515,1.01-0.083,0.377-0.116,0.79-0.116,1.24,0,1.58,0.415,3.63,0.814,5.31s0.797,2.98,0.797,2.99l0.598-0.184,0.548-0.302c0-0.002-2.26-4.04-4.65-8.26-1.2-2.11-2.42-4.27-3.44-6-0.498-0.865-0.946-1.62-1.3-2.21-0.365-0.593-0.631-1.01-0.797-1.24-0.415-0.57-1.03-0.882-1.63-0.872-0.731,0.008-1.36,0.36-1.89,0.814-0.531,0.46-0.98,1.05-1.28,1.65v-0.003c-0.116,0.247-0.133,0.453-0.133,0.677,0.0166,0.875,0.365,2.23,0.897,3.98,1.63,5.21,5,13.5,6.36,16.2,1.26,2.52,1.46,5.5,1.46,6.98,0,0.301,0,0.54-0.0166,0.702,0,0.161-0.0166,0.239-0.0166,0.239l0.631,0.0531,0.465-0.402c0-0.007-1.51-1.8-3.35-3.65-0.93-0.927-1.94-1.87-2.91-2.61-0.98-0.744-1.86-1.32-2.74-1.45-0.365-0.0531-0.731-0.0797-1.06-0.0797-0.747,0.003-1.43,0.133-1.96,0.442-0.531,0.297-0.93,0.873-0.913,1.53,0,0.589,0.266,1.16,0.731,1.74,0.697,0.868,1.83,2.75,3.17,5.08,1.36,2.34,2.96,5.16,4.65,7.98,1.84,3.03,6.11,5.82,10.3,8.06,4.23,2.23,8.34,3.82,9.95,4.23,1.26,0.307,2.31,1.4,3.01,2.46,0.349,0.53,0.631,1.04,0.797,1.42,0.0996,0.189,0.166,0.344,0.199,0.448l0.0664,0.156,1.16-0.427z"/>
<path fill-rule="nonzero" fill="#999" d="m290,276,19.8-4.44,0.465,2.08,11.4-5.98-12.9-0.528,0.465,2.08-19.8,4.44,0.531,2.36z"/>
<path fill-rule="nonzero" fill="#999" d="m256,81.5-0.216-0.797c-0.483,0.133-0.968,0.199-1.44,0.199-2.45,0-4.69-1.64-5.35-4.12-0.131-0.482-0.193-0.963-0.194-1.44,0.002-2.44,1.64-4.68,4.11-5.35,0.483-0.133,0.966-0.199,1.44-0.199,2.45,0,4.69,1.64,5.36,4.12,0.13,0.482,0.191,0.963,0.191,1.44,0,2.44-1.63,4.68-4.11,5.35l0.216,0.797,0.216,0.814c3.21-0.863,5.34-3.77,5.34-6.96,0-0.614-0.0797-1.25-0.247-1.88-0.865-3.22-3.77-5.35-6.96-5.35-0.621,0-1.25,0.083-1.87,0.249-3.21,0.88-5.34,3.77-5.34,6.96,0,0.614,0.0814,1.25,0.251,1.88,0.86,3.22,3.77,5.35,6.95,5.35,0.619,0,1.25-0.083,1.88-0.249l-0.216-0.814z"/>
<path fill-rule="nonzero" fill="#999" d="m276,74.2-9.42,0.149-0.0166,2.42,9.43-0.166,0.0133-2.41z"/>
<path fill-rule="nonzero" fill="#999" d="m263,74.2-9.43,0.149-0.0116,2.41,9.42-0.149,0.0199-2.41z"/>
<path d="m288,76.6,18.1,0.241-0.003,2.13,12.5-3.25-12.4-3.4-0.0133,2.13-18.1-0.241-0.0133,2.41z" fill-rule="nonzero" fill="#999"/>
<path fill-rule="nonzero" fill="#0d1109" d="m283,81.9-0.161-0.598c-0.501,0.133-1,0.199-1.5,0.199-2.54,0-4.86-1.69-5.55-4.27-0.134-0.498-0.198-1.01-0.198-1.49,0-2.54,1.7-4.87,4.27-5.56,0.503-0.133,1.01-0.199,1.5-0.199,2.54,0,4.86,1.69,5.55,4.27,0.134,0.498,0.199,1.01,0.199,1.49,0,2.54-1.69,4.87-4.26,5.56l0.161,0.598,0.161,0.598c3.13-0.83,5.18-3.65,5.18-6.76,0-0.598-0.078-1.21-0.242-1.81-0.837-3.12-3.66-5.2-6.75-5.2-0.603,0-1.22,0.083-1.82,0.249-3.13,0.83-5.19,3.67-5.19,6.76,0,0.598,0.078,1.21,0.241,1.81,0.842,3.12,3.66,5.2,6.76,5.2,0.603,0,1.21-0.083,1.82-0.249l-0.161-0.598z"/>
<path fill-rule="nonzero" fill="#0d1109" d="m321,121c-0.0166-0.0166-0.628-0.98-1.66-1.98-1.03-0.98-2.5-2.04-4.3-2.09-0.661-0.0166-2.06-0.282-3.8-0.731-5.22-1.35-13.7-4.3-17.9-6.64-2.12-1.16-3.59-1.89-4.46-2.49-0.435-0.282-0.709-0.531-0.855-0.747s-0.199-0.365-0.203-0.648c-0.002-0.266,0.0664-0.614,0.221-1.08,0.164-0.515,0.262-1.31,0.4-2.31,0.199-1.48,0.453-3.34,0.885-4.82,0.213-0.731,0.475-1.36,0.757-1.76,0.292-0.415,0.541-0.565,0.785-0.581l0.0598-0.0166c0.179,0,0.345,0.0664,0.541,0.199,0.339,0.216,0.716,0.714,1.03,1.33,0.482,0.946,0.849,2.14,1.09,3.11,0.118,0.482,0.206,0.897,0.262,1.2,0.0581,0.299,0.0847,0.465,0.0847,0.465l1.23-0.166c-0.0149-0.0498-0.606-4.6-3.38-8.05-1.26-1.54-4.1-5.56-6.6-9.42-1.25-1.93-2.42-3.82-3.27-5.35-0.425-0.764-0.77-1.44-1-1.98-0.236-0.515-0.34-0.93-0.329-0.996h-0.128l0.121,0.0332,0.007-0.0332h-0.128l0.121,0.0332c0.134-0.548,0.427-1.15,0.779-1.56,0.354-0.432,0.737-0.648,0.996-0.631,0.158,0,0.322,0.0498,0.556,0.232l-0.0432-0.0332,0.0448,0.0498c0.134,0.0996,0.487,0.465,0.951,0.946,1.64,1.71,4.81,5.23,7.57,8.3,1.38,1.54,2.66,2.97,3.59,4.02,0.932,1.05,1.52,1.71,1.52,1.71l1.01-0.731s-0.209-0.365-0.528-0.963c-0.477-0.913-1.2-2.32-1.79-3.74-0.596-1.41-1.05-2.86-1.04-3.64,0-0.216,0.0349-0.365,0.0664-0.432l0.0631-0.083,0.294-0.0332c0.48-0.0166,1.36,0.249,2.32,0.697,1.45,0.648,3.13,1.66,4.44,2.49,0.653,0.432,1.21,0.797,1.61,1.08,0.397,0.266,0.626,0.432,0.626,0.432l0.364-0.498,0.299-0.548-0.0664-0.0332c-0.163-0.0996-0.594-0.365-0.955-0.681-0.181-0.149-0.342-0.316-0.438-0.465l-0.12-0.249,0.0847-0.083c0.0697-0.0664,0.199-0.133,0.4-0.216,0.372-0.133,0.769-0.199,1.2-0.199,0.963,0,2.09,0.332,3.26,0.797,1.18,0.448,2.41,0.996,3.64,1.39,1.37,0.415,3.63,1.43,5.69,2.69,2.06,1.25,3.91,2.82,4.52,4.17,0.687,1.46,1.11,3.57,2.13,5.68,1.01,2.09,2.68,4.18,5.8,5.51,2.97,1.26,4.87,2.09,6.03,2.61,1.16,0.498,1.57,0.697,1.58,0.697l0.52-1.13c-0.008-0.0166-1.7-0.78-7.64-3.32-2.82-1.21-4.22-2.99-5.17-4.92-0.938-1.93-1.35-3.99-2.12-5.66-0.852-1.78-2.85-3.37-5-4.7s-4.46-2.36-5.97-2.82c-1.13-0.349-2.34-0.897-3.57-1.36-1.23-0.482-2.47-0.88-3.71-0.88-0.55,0-1.1,0.083-1.63,0.282-0.382,0.149-0.686,0.316-0.922,0.565s-0.375,0.581-0.37,0.897c0.007,0.465,0.209,0.797,0.43,1.08,0.673,0.847,1.77,1.41,1.8,1.44l0.663-1.06c-0.008,0-1.7-1.21-3.73-2.44-1.02-0.614-2.12-1.21-3.16-1.69-1.04-0.465-1.99-0.797-2.83-0.797-0.257,0-0.511,0.0332-0.759,0.133-0.339,0.133-0.601,0.399-0.732,0.714-0.134,0.299-0.176,0.614-0.178,0.946,0.005,0.78,0.241,1.68,0.571,2.64,0.998,2.89,2.94,6.29,2.95,6.31l0.541-0.299,0.465-0.415s-3.07-3.45-6.31-7.07c-1.62-1.79-3.29-3.64-4.64-5.11-0.676-0.731-1.27-1.38-1.75-1.88-0.478-0.498-0.82-0.847-1.04-1.03l0.0864,0.0664-0.0847-0.0664c-0.408-0.365-0.895-0.548-1.37-0.548-0.827,0-1.47,0.498-1.96,1.08-0.487,0.598-0.84,1.33-1.02,2.04h0.003l-0.0349,0.282c0.0116,0.465,0.179,0.897,0.433,1.49,0.897,2.04,3.07,5.56,5.33,8.95,2.25,3.4,4.56,6.64,5.72,8.09,1.25,1.53,2.04,3.4,2.5,4.88,0.232,0.731,0.385,1.38,0.48,1.83,0.0482,0.232,0.0797,0.415,0.101,0.531l0.0282,0.183,0.616-0.083,0.616-0.0996c-0.003-0.0166-0.271-1.74-0.877-3.52-0.306-0.88-0.691-1.78-1.21-2.51-0.259-0.365-0.555-0.681-0.91-0.913-0.354-0.249-0.78-0.415-1.24-0.415l-0.156,0.0166c-0.492,0.0332-0.928,0.266-1.26,0.581-0.586,0.565-0.955,1.36-1.26,2.26-0.447,1.36-0.709,3.01-0.912,4.42-0.101,0.714-0.186,1.38-0.266,1.93-0.0764,0.531-0.158,0.963-0.219,1.13-0.174,0.548-0.282,1.01-0.282,1.48-0.005,0.498,0.144,0.98,0.433,1.38,0.435,0.598,1.09,1.03,2.01,1.58,0.925,0.531,2.14,1.15,3.71,2.03,2.94,1.63,7.67,3.47,12.1,4.93,2.21,0.731,4.33,1.36,6.11,1.81,1.78,0.465,3.19,0.747,4.07,0.78,1.29,0.0166,2.55,0.863,3.47,1.74,0.46,0.448,0.832,0.897,1.09,1.23,0.128,0.166,0.226,0.299,0.291,0.382l0.0731,0.116,0.0199,0.0332,1.05-0.681z"/>
<path fill-rule="nonzero" fill="#999" d="m39.6,276-0.83,0c0,5.13-2.08,9.77-5.43,13.1-3.36,3.36-8,5.44-13.1,5.44-5.13-0.002-9.76-2.08-13.1-5.44-3.46-3-5.54-8-5.54-13,0.002-5.13,2.08-9.77,5.43-13.1,3.36-3.36,8-5.44,13.1-5.44,5.13,0.002,9.77,2.08,13.1,5.44,3.36,3.36,5.43,8,5.43,13.1h0.83,0.83c0-11.2-9.05-20.2-20.2-20.2-11,0-20.1,9-20.1,20,0.002,11.2,9.05,20.2,20.2,20.2,11.2-0.002,20.2-9.06,20.2-20.2h-0.83z"/>
<path fill-rule="nonzero" fill="#0d1109" d="m26.6,276-0.623,0c-0.005,3.18-2.58,5.75-5.76,5.76-3.18-0.007-5.75-2.58-5.76-5.76,0.007-3.18,2.58-5.75,5.76-5.76,3.18,0.007,5.75,2.58,5.76,5.76h0.623,0.623c0-3.87-3.13-7-7-7-3.86,0-7,3.14-7,7,0.002,3.87,3.14,7,7,7,3.87-0.002,7-3.14,7-7h-0.623z"/>
<path fill-rule="nonzero" fill="#0d1109" d="m60.8,330c-0.0149-0.0216-0.915-1.47-2.26-3.05-0.674-0.787-1.46-1.61-2.31-2.3-0.858-0.692-1.79-1.27-2.8-1.53l-0.0996-0.0249,0.101,0.0249c-1.67-0.418-6.72-1.62-11.8-3.48-2.53-0.93-5.07-2.03-7.18-3.25-2.11-1.23-3.77-2.6-4.58-3.96-1.87-3.12-3.64-6.24-5.15-8.85-1.52-2.62-2.76-4.7-3.66-5.84-0.387-0.482-0.487-0.834-0.482-0.988l0.0498-0.181c0.0465-0.078,0.176-0.203,0.455-0.306,0.276-0.103,0.681-0.174,1.18-0.174,0.289,0,0.608,0.0232,0.951,0.0731,0.427,0.0415,1.36,0.541,2.34,1.31,1.49,1.15,3.19,2.84,4.5,4.24,0.656,0.699,1.22,1.33,1.61,1.78,0.395,0.45,0.623,0.719,0.623,0.721l0.985,1.17,0.445-1.46c0.0133-0.0465,0.528-1.73,0.531-3.85,0-1-0.116-2.11-0.478-3.2-0.362-1.08-0.981-2.15-1.97-3-5.14-4.41-8.51-8.54-10.6-11.8-1.04-1.61-1.75-3.01-2.21-4.09-0.457-1.07-0.641-1.88-0.641-2.14l-0.158,0.003h0.158v-0.005l-0.158,0.005h0.158l0.003-0.0282c0.0216-0.208,0.325-0.882,0.749-1.36,0.209-0.247,0.445-0.462,0.668-0.598,0.223-0.138,0.417-0.194,0.575-0.194,0.136,0.002,0.262,0.0299,0.443,0.148,0.179,0.118,0.407,0.339,0.651,0.722,7.41,11.6,16.9,16.1,16.9,16.1l1.6,0.756-0.445-1.72c-0.002,0-0.0432-0.161-0.11-0.452-0.199-0.865-0.598-2.85-0.594-4.44-0.003-0.673,0.0764-1.27,0.216-1.62,0.0664-0.178,0.143-0.287,0.198-0.34l0.164-0.0847,0.203-0.0149c0.443-0.008,1.19,0.209,2,0.584,1.21,0.558,2.57,1.43,3.6,2.16,0.518,0.364,0.958,0.692,1.27,0.928,0.309,0.237,0.482,0.379,0.482,0.379l1.07-1.27-0.0531-0.0482c-0.135-0.123-0.495-0.47-0.797-0.855-0.151-0.191-0.286-0.392-0.37-0.561-0.088-0.168-0.113-0.299-0.108-0.322l-0.123-0.0232,0.103,0.0681,0.0183-0.0448-0.121-0.0232,0.103,0.0681-0.0731-0.0482,0.0648,0.0581,0.008-0.01-0.0731-0.0482,0.0648,0.0581,0.0133-0.01c0.0399-0.0299,0.196-0.105,0.496-0.146l0.083-0.0116-0.083,0.0116c0.149-0.0216,0.301-0.0315,0.453-0.0315,1.09-0.008,2.33,0.558,3.65,1.39,1.32,0.827,2.69,1.89,4.12,2.71l0.0515,0.0282-0.0498-0.0282c1.44,0.824,4.23,2.48,6.74,4.37,1.25,0.945,2.43,1.95,3.32,2.92,0.898,0.963,1.48,1.9,1.63,2.59,0.189,0.854,0.214,1.59,0.228,2.33,0.0216,1.1,0,2.27,0.626,3.56s1.82,2.59,4.06,4.19c2.88,2.06,4.4,3.49,5.18,4.36,0.387,0.438,0.589,0.734,0.686,0.9l0.078,0.148,0.002,0.003,0.545-0.186-0.558,0.139,0.0133,0.0465,0.545-0.186-0.558,0.139,1.61-0.402c-0.115-0.364-0.681-2.08-6.58-6.31-1.42-1.01-2.32-1.85-2.89-2.57-0.845-1.08-0.996-1.83-1.07-2.81-0.0631-0.973,0.0415-2.18-0.297-3.72-0.272-1.19-1.04-2.28-2.03-3.36-2.98-3.21-8.24-6.33-10.5-7.6-1.29-0.737-2.65-1.78-4.06-2.67-1.41-0.88-2.89-1.64-4.53-1.65-0.227,0-0.458,0.0149-0.687,0.0482-0.536,0.0797-0.986,0.227-1.35,0.536-0.374,0.302-0.57,0.799-0.556,1.21,0.005,0.475,0.169,0.858,0.355,1.2,0.57,1.01,1.51,1.8,1.54,1.83l0.546-0.624,0.523-0.646c-0.0149-0.01-1.34-1.08-3.02-2.17-0.84-0.543-1.77-1.09-2.69-1.51-0.922-0.418-1.81-0.731-2.69-0.737-0.158,0-0.317,0.0116-0.475,0.0382-0.41,0.0648-0.785,0.267-1.06,0.538-0.412,0.412-0.616,0.922-0.742,1.45-0.125,0.533-0.168,1.11-0.168,1.7,0.005,2.45,0.752,5.27,0.757,5.3l0.804-0.208,0.354-0.752-0.0897-0.0432c-0.968-0.482-9.45-4.93-16.2-15.5-0.335-0.526-0.709-0.932-1.13-1.21-0.422-0.282-0.902-0.425-1.36-0.423-0.583,0.002-1.1,0.213-1.53,0.495-0.648,0.428-1.14,1.02-1.5,1.61-0.181,0.294-0.327,0.588-0.435,0.872-0.106,0.287-0.183,0.551-0.186,0.868l0.002,0.0481c0.0282,0.668,0.272,1.54,0.769,2.73,1.49,3.55,5.34,9.7,13.2,16.5,0.729,0.626,1.19,1.4,1.48,2.26,0.289,0.857,0.394,1.79,0.394,2.67,0,0.925-0.116,1.78-0.232,2.4-0.0581,0.307-0.116,0.556-0.159,0.726l-0.0515,0.189-0.0149,0.0565,0.794,0.242,0.636-0.535c-0.01-0.0116-1.69-2-3.75-4.07-1.03-1.03-2.16-2.08-3.24-2.92-1.09-0.83-2.09-1.48-3.12-1.64-0.413-0.0598-0.81-0.0897-1.19-0.0897-0.863,0.003-1.62,0.148-2.25,0.51-0.311,0.181-0.588,0.425-0.787,0.741-0.199,0.312-0.309,0.692-0.307,1.07,0.007,0.702,0.32,1.36,0.845,2.02,0.762,0.95,2.02,3.04,3.53,5.63,1.51,2.6,3.28,5.73,5.16,8.87,1.07,1.76,2.93,3.23,5.17,4.54,3.35,1.95,7.56,3.51,11.3,4.68,3.7,1.16,6.89,1.92,8.14,2.24l0.0897,0.0232-0.088-0.0232c0.651,0.159,1.41,0.601,2.16,1.21,1.12,0.905,2.19,2.15,2.96,3.16,0.387,0.506,0.702,0.955,0.92,1.27,0.108,0.159,0.191,0.287,0.247,0.374l0.083,0.128,1.41-0.877z"/>
<path fill-rule="nonzero" fill="#0d1109" d="m98.5,269-0.623,0c0,3.91-1.58,7.45-4.15,10-2.57,2.57-6.1,4.15-10,4.15-3.91,0-7.45-1.59-10-4.15-2.57-2.57-4.15-6.11-4.15-10,0-3.92,1.58-7.46,4.15-10,2.57-2.57,6.1-4.15,10-4.15,3.92,0,7.46,1.58,10,4.15,2.57,2.57,4.15,6.11,4.15,10h0.623,0.623c0-8.52-6.9-15.4-15.4-15.4-8.51,0-15.4,6.9-15.4,15.4,0,8.51,6.9,15.4,15.4,15.4,8.52,0,15.4-6.9,15.4-15.4h-0.623z"/>
<path fill-rule="nonzero" fill="#0d1109" d="m84.4,271,0-11.2c0-0.344-0.279-0.623-0.623-0.623s-0.623,0.279-0.623,0.623v11.2c0,0.344,0.279,0.623,0.623,0.623s0.623-0.279,0.623-0.623"/>
<path fill-rule="nonzero" fill="#999" d="m83.4,271,7.74-8.32c0.234-0.251,0.221-0.646-0.0316-0.88-0.251-0.234-0.646-0.219-0.88,0.0315l-7.74,8.32c-0.234,0.251-0.219,0.646,0.0315,0.88,0.252,0.234,0.646,0.219,0.88-0.0315"/>
<path fill-rule="nonzero" fill="#0d1109" d="m82.4,270,11.1,2.51c0.335,0.0764,0.669-0.134,0.744-0.47,0.0764-0.335-0.134-0.669-0.47-0.746l-11.1-2.51c-0.335-0.0764-0.669,0.135-0.746,0.47-0.0764,0.337,0.134,0.668,0.47,0.744"/>
<path fill-rule="nonzero" fill="#0d1109" d="m84.3,258-1.01,0,0-2,1.01,0,0,2z"/>
<path fill-rule="nonzero" fill="#FFF" d="m84.3,258,0-0.0515-0.963,0,0-1.89,0.91,0,0,1.94,0.0531,0,0-0.0515,0,0.0515,0.0515,0,0-2,0-0.0515-1.07,0-0.0515,0,0,2.05,0,0.0515,1.07,0,0.0515,0,0-0.0515-0.0515,0z"/>
<path fill-rule="nonzero" fill="#0d1109" d="m84.3,283-1.01,0,0-2,1.01,0,0,2z"/>
<path fill-rule="nonzero" fill="#FFF" d="m84.3,283,0-0.0515-0.963,0,0-1.89,0.91,0,0,1.95,0.0531,0,0-0.0515,0,0.0515,0.0515,0,0-2,0-0.0515-1.07,0-0.0515,0,0,2.05,0,0.0515,1.07,0,0.0515,0,0-0.0515-0.0515,0z"/>
<path fill-rule="nonzero" fill="#0d1109" d="m95.3,270,0-1.01,2,0,0,1.01-2,0z"/>
<path fill-rule="nonzero" fill="#FFF" d="m95.3,270,0.0515,0,0-0.961,1.89,0,0,0.91-1.95,0,0,0.0515,0.0515,0-0.0515,0,0,0.0515,2,0,0.0515,0,0-1.07,0-0.0515-2.05,0-0.0531,0,0,1.07,0,0.0515,0.0531,0,0-0.0515z"/>
<path fill-rule="nonzero" fill="#0d1109" d="m70.3,270,0-1.01,1.99,0,0,1.01-1.99,0z"/>
<path fill-rule="nonzero" fill="#FFF" d="m70.3,270,0.0515,0,0-0.961,1.89,0,0,0.91-1.94,0,0,0.0515,0.0515,0-0.0515,0,0,0.0515,1.99,0,0.0515,0,0-1.07,0-0.0515-2.04,0-0.0515,0,0,1.07,0,0.0515,0.0515,0,0-0.0515z"/>
<path fill-rule="nonzero" fill="#0d1109" d="m91.7,278,0.359-0.355,1.41,1.41-0.357,0.357-1.41-1.41z"/>
<path fill-rule="nonzero" fill="#FFF" d="m91.7,278,0.0365,0.0365,0.322-0.319,1.34,1.34-0.284,0.284-1.38-1.38-0.0365,0.0365,0.0365,0.0365-0.0365-0.0365-0.0365,0.0365,1.45,1.45,0.395-0.394,0.0365-0.0365-1.48-1.48-0.395,0.392-0.0365,0.0365,0.0365,0.0365,0.0365-0.0365z"/>
<path fill-rule="nonzero" fill="#0d1109" d="m74,260,0.357-0.359,1.41,1.41-0.359,0.36-1.41-1.41z"/>
<path fill-rule="nonzero" fill="#FFF" d="m74,260,0.0365,0.0365,0.32-0.322,1.34,1.34-0.286,0.287-1.37-1.38-0.0365,0.0365,0.0365,0.0365-0.0365-0.0365-0.0365,0.0365,1.45,1.45,0.395-0.397,0.0365-0.0365-1.48-1.49-0.394,0.399-0.0365,0.0349,0.0365,0.0365,0.0365-0.0365z"/>
<path fill-rule="nonzero" fill="#0d1109" d="m75.4,277,0.362,0.355-1.41,1.41-0.359-0.357,1.41-1.41z"/>
<path fill-rule="nonzero" fill="#FFF" d="m75.4,277-0.0365,0.0365,0.325,0.319-1.34,1.34-0.286-0.284,1.37-1.37-0.0365-0.0365-0.0365,0.0365,0.0365-0.0365-0.0365-0.0365-1.45,1.45,0.395,0.394,0.0365,0.0365,1.49-1.49-0.399-0.392-0.0365-0.0365-0.0365,0.0365,0.0365,0.0365z"/>
<path fill-rule="nonzero" fill="#0d1109" d="m93.1,260,0.357,0.359-1.41,1.41-0.359-0.36,1.41-1.41z"/>
<path fill-rule="nonzero" fill="#FFF" d="m93.1,260-0.0382,0.0365,0.322,0.322-1.34,1.34-0.286-0.287,1.38-1.37-0.0365-0.0365-0.0382,0.0365,0.0382-0.0365-0.0382-0.0365-1.45,1.45,0.395,0.397,0.0365,0.0365,1.48-1.49-0.394-0.395-0.0365-0.0365-0.0382,0.0365,0.0382,0.0365z"/>
<path fill-rule="nonzero" fill="#b0b2b4" d="m77.8,279,0.438,0.254-0.996,1.73-0.44-0.254,0.998-1.73z"/>
<path fill-rule="nonzero" fill="#FFF" d="m77.8,279-0.0515,0.0897,0.349,0.203-0.893,1.55-0.261-0.151,0.946-1.64-0.0897-0.0515-0.0515,0.0897,0.0515-0.0897-0.0897-0.0515-1.05,1.82,0.531,0.304,0.0897,0.0515,1.1-1.9-0.528-0.307-0.088-0.0515-0.0531,0.0897,0.0897,0.0515z"/>
<path fill-rule="nonzero" fill="#b0b2b4" d="m90.3,258,0.438,0.251-0.996,1.73-0.438-0.254,0.996-1.73z"/>
<path fill-rule="nonzero" fill="#FFF" d="m90.3,258-0.0515,0.0897,0.349,0.199-0.893,1.55-0.259-0.149,0.943-1.64-0.088-0.0515-0.0515,0.0897,0.0515-0.0897-0.0897-0.0515-1.05,1.81,0.526,0.307,0.0897,0.0515,1.1-1.91-0.53-0.302-0.088-0.0515-0.0515,0.0897,0.0897,0.0515z"/>
<path fill-rule="nonzero" fill="#b0b2b4" d="m73.7,275,0.254,0.437-1.73,1-0.252-0.44,1.73-0.996z"/>
<path fill-rule="nonzero" fill="#FFF" d="m73.7,275-0.0897,0.0531,0.203,0.345-1.55,0.897-0.149-0.261,1.64-0.945-0.0515-0.0897-0.0897,0.0531,0.0897-0.0531-0.0515-0.0897-1.81,1.05,0.304,0.53,0.0515,0.0913,1.91-1.11-0.307-0.525-0.0515-0.0897-0.088,0.0515,0.0515,0.0897z"/>
<path fill-rule="nonzero" fill="#b0b2b4" d="m95.3,263,0.256,0.44-1.73,0.996-0.252-0.442,1.73-0.995z"/>
<path fill-rule="nonzero" fill="#FFF" d="m95.3,263-0.0897,0.0515,0.204,0.352-1.55,0.892-0.149-0.262,1.64-0.943-0.0515-0.0897-0.0897,0.0515,0.0897-0.0515-0.0515-0.0897-1.81,1.05,0.304,0.53,0.0515,0.0897,1.91-1.1-0.307-0.53-0.0531-0.0897-0.088,0.0515,0.0515,0.0897z"/>
<path fill-rule="nonzero" fill="#b0b2b4" d="m72.7,266-0.131,0.492-1.93-0.518,0.131-0.492,1.93,0.518z"/>
<path fill-rule="nonzero" fill="#FFF" d="m72.7,266-0.0996-0.0266-0.105,0.39-1.73-0.463,0.078-0.292,1.83,0.492,0.0266-0.0996-0.0996-0.0266,0.0996,0.0266,0.0282-0.0996-2.03-0.545-0.158,0.591-0.0266,0.0996,2.13,0.571,0.159-0.591,0.0266-0.0996-0.0996-0.0266-0.0282,0.0996z"/>
<path fill-rule="nonzero" fill="#b0b2b4" d="m96.9,273-0.131,0.492-1.93-0.516,0.133-0.492,1.93,0.516z"/>
<path fill-rule="nonzero" fill="#FFF" d="m96.9,273-0.0996-0.0266-0.105,0.392-1.73-0.463,0.078-0.292,1.83,0.49,0.0266-0.0996-0.0996-0.0266,0.0996,0.0266,0.0282-0.0996-2.03-0.543-0.159,0.589-0.0266,0.0996,2.13,0.571,0.159-0.591,0.0266-0.0996-0.0996-0.0266-0.0282,0.0996z"/>
<path fill-rule="nonzero" fill="#b0b2b4" d="m80.5,281,0.49,0.131-0.516,1.93-0.488-0.131,0.515-1.93z"/>
<path fill-rule="nonzero" fill="#FFF" d="m80.5,281-0.0266,0.0996,0.39,0.105-0.463,1.73-0.289-0.0764,0.49-1.83-0.101-0.0266-0.0266,0.0996,0.0266-0.0996-0.0996-0.0282-0.541,2.03,0.588,0.159,0.0996,0.0266,0.571-2.13-0.589-0.159-0.101-0.0266-0.0266,0.0996,0.0996,0.0282z"/>
<path fill-rule="nonzero" fill="#b0b2b4" d="m87,256,0.492,0.131-0.518,1.93-0.49-0.131,0.516-1.93z"/>
<path fill-rule="nonzero" fill="#FFF" d="m87,256-0.0266,0.0996,0.392,0.105-0.465,1.73-0.289-0.0764,0.488-1.83-0.0996-0.0266-0.0266,0.0996,0.0266-0.0996-0.0996-0.0282-0.543,2.03,0.589,0.158,0.0996,0.0266,0.571-2.13-0.591-0.158-0.0996-0.0266-0.0266,0.0996,0.0996,0.0282z"/>
<path fill-rule="nonzero" fill="#b0b2b4" d="m89.3,280,0.438-0.254,0.996,1.73-0.438,0.254-0.996-1.73z"/>
<path fill-rule="nonzero" fill="#FFF" d="m89.3,280,0.0515,0.0897,0.349-0.203,0.893,1.55-0.261,0.151-0.943-1.64-0.0897,0.0515,0.0515,0.0897-0.0515-0.0897-0.0897,0.0515,1.05,1.81,0.528-0.306,0.0897-0.0498-1.1-1.91-0.526,0.306-0.0897,0.0531,0.0515,0.088,0.0897-0.0515z"/>
<path fill-rule="nonzero" fill="#b0b2b4" d="m76.8,258,0.44-0.251,0.996,1.73-0.438,0.254-0.998-1.73z"/>
<path fill-rule="nonzero" fill="#FFF" d="m76.8,258,0.0498,0.0897,0.352-0.199,0.893,1.55-0.259,0.149-0.948-1.64-0.088,0.0515,0.0498,0.0897-0.0498-0.0897-0.0897,0.0531,1.05,1.82,0.528-0.306,0.0897-0.0531-1.1-1.9-0.53,0.302-0.0913,0.0515,0.0531,0.0913,0.0897-0.0531z"/>
<path fill-rule="nonzero" fill="#b0b2b4" d="m86.5,281,0.49-0.131,0.518,1.92-0.492,0.136-0.516-1.93z"/>
<path fill-rule="nonzero" fill="#FFF" d="m86.5,281,0.0266,0.0996,0.39-0.105,0.465,1.73-0.292,0.0814-0.488-1.83-0.101,0.0266,0.0266,0.0996-0.0266-0.0996-0.0996,0.0266,0.543,2.03,0.591-0.163,0.0996-0.0282-0.571-2.12-0.589,0.158-0.0996,0.0282,0.0266,0.0996,0.0996-0.0266z"/>
<path fill-rule="nonzero" fill="#b0b2b4" d="m80,257,0.488-0.131,0.516,1.92-0.49,0.133-0.515-1.92z"/>
<path fill-rule="nonzero" fill="#FFF" d="m80,257,0.0266,0.0996,0.389-0.105,0.463,1.72-0.291,0.0781-0.488-1.82-0.0996,0.0282,0.0266,0.0996-0.0266-0.0996-0.0996,0.0266,0.541,2.02,0.591-0.159,0.0996-0.0282-0.571-2.12-0.588,0.158-0.0996,0.0282,0.0266,0.0996,0.0996-0.0266z"/>
<path fill-rule="nonzero" fill="#b0b2b4" d="m93.6,275,0.254-0.437,1.73,0.996-0.254,0.44-1.73-1z"/>
<path fill-rule="nonzero" fill="#FFF" d="m93.6,275,0.088,0.0515,0.204-0.347,1.55,0.893-0.151,0.261-1.64-0.948-0.0515,0.0897,0.088,0.0515-0.088-0.0515-0.0531,0.0897,1.82,1.05,0.306-0.531,0.0515-0.0897-1.91-1.1-0.306,0.525-0.0531,0.0897,0.0897,0.0531,0.0531-0.0897z"/>
<path fill-rule="nonzero" fill="#b0b2b4" d="m71.9,263,0.252-0.437,1.73,0.995-0.251,0.442-1.73-1z"/>
<path fill-rule="nonzero" fill="#FFF" d="m71.9,263,0.088,0.0515,0.203-0.347,1.55,0.892-0.148,0.262-1.64-0.948-0.0515,0.0897,0.088,0.0515-0.088-0.0515-0.0531,0.088,1.82,1.05,0.302-0.531,0.0515-0.0897-1.91-1.1-0.304,0.525-0.0531,0.0897,0.0897,0.0515,0.0531-0.088z"/>
<path fill-rule="nonzero" fill="#0d1109" d="m94.9,267-0.131-0.488,1.93-0.518,0.131,0.492-1.93,0.515z"/>
<path fill-rule="nonzero" fill="#FFF" d="m94.9,267,0.0498-0.0133-0.118-0.438,1.83-0.492,0.105,0.392-1.88,0.501,0.0133,0.0498,0.0498-0.0133-0.0498,0.0133,0.0133,0.0498,1.98-0.528-0.146-0.541-0.0133-0.0498-2.03,0.545,0.144,0.538,0.0133,0.0498,0.0498-0.0133-0.0133-0.0498z"/>
<path fill-rule="nonzero" fill="#0d1109" d="m70.8,273-0.131-0.488,1.93-0.516,0.131,0.492-1.93,0.513z"/>
<path fill-rule="nonzero" fill="#FFF" d="m70.8,273,0.0498-0.0133-0.118-0.438,1.83-0.49,0.105,0.39-1.88,0.501,0.0133,0.0498,0.0498-0.0133-0.0498,0.0133,0.0133,0.0498,1.98-0.528-0.146-0.54-0.0133-0.0498-2.03,0.543,0.144,0.538,0.0133,0.0498,0.0498-0.0133-0.0133-0.0498z"/>
<path fill-rule="nonzero" fill="#b0b2b4" d="m72.6,272,0.13,0.488-1.93,0.516-0.128-0.488,1.93-0.516z"/>
<path fill-rule="nonzero" fill="#FFF" d="m72.6,272-0.0996,0.0249,0.103,0.389-1.73,0.465-0.0764-0.289,1.83-0.49-0.0282-0.0996-0.0996,0.0249,0.0996-0.0249-0.0266-0.0996-2.03,0.543,0.154,0.588,0.0266,0.0996,2.13-0.57-0.153-0.588-0.0266-0.0996-0.101,0.0266,0.0266,0.0996z"/>
<path fill-rule="nonzero" fill="#b0b2b4" d="m96.7,266,0.133,0.488-1.93,0.518-0.131-0.488,1.93-0.518z"/>
<path fill-rule="nonzero" fill="#FFF" d="m96.7,266-0.0996,0.0282,0.106,0.387-1.73,0.463-0.0764-0.287,1.83-0.492-0.0282-0.0996-0.0996,0.0282,0.0996-0.0282-0.0266-0.0996-2.03,0.545,0.158,0.588,0.0266,0.0996,2.13-0.571-0.161-0.588-0.0266-0.0996-0.0996,0.0266,0.0266,0.0996z"/>
<path fill-rule="nonzero" fill="#999" d="m175,278-0.598-0.154c-0.664,2.6-3.01,4.33-5.58,4.33-0.465,0-0.946-0.0598-1.43-0.181-2.61-0.666-4.33-3.01-4.33-5.58,0-0.472,0.0498-0.951,0.183-1.43,0.664-2.6,3.01-4.33,5.58-4.33,0.465,0,0.946,0.0581,1.43,0.181,2.61,0.664,4.33,3.01,4.33,5.57,0,0.473-0.0664,0.953-0.183,1.43l0.598,0.154,0.614,0.154c0.149-0.583,0.216-1.17,0.216-1.74,0-3.12-2.11-5.97-5.28-6.78-0.581-0.148-1.16-0.221-1.73-0.221-3.12,0-5.98,2.11-6.79,5.27-0.149,0.581-0.216,1.17-0.216,1.74,0,3.13,2.11,5.97,5.28,6.78,0.581,0.149,1.16,0.221,1.73,0.221,3.12,0,5.98-2.1,6.79-5.27l-0.614-0.154z"/>
<path fill-rule="nonzero" fill="#999" d="m169,278,11.9-15.6,1.69,1.27,4.83-12-10.2,7.97,1.69,1.28-11.9,15.6,1.93,1.45z"/>
<path fill-rule="nonzero" fill="#999" d="m163,294-0.598-0.154c-0.664,2.6-3.01,4.33-5.58,4.33-0.482,0-0.946-0.0581-1.43-0.181-2.61-0.668-4.33-3.01-4.33-5.58,0-0.472,0.0498-0.95,0.183-1.43,0.664-2.6,3.01-4.33,5.56-4.33,0.482,0,0.963,0.0598,1.44,0.183,2.61,0.663,4.33,3.01,4.33,5.58,0,0.472-0.0664,0.951-0.183,1.43l0.598,0.154,0.614,0.153c0.149-0.581,0.216-1.16,0.216-1.74,0-3.13-2.11-5.97-5.28-6.78-0.581-0.149-1.16-0.223-1.74-0.223-3.12,0-5.96,2.11-6.77,5.27-0.149,0.58-0.216,1.16-0.216,1.74,0,3.13,2.11,5.97,5.26,6.79,0.581,0.148,1.16,0.219,1.74,0.219,3.12,0,5.98-2.1,6.79-5.27l-0.614-0.154z"/>
<path fill-rule="nonzero" fill="#999" d="m156,291-10.9,14.7-1.69-1.28-4.83,12,10.2-7.96-1.71-1.28,10.9-14.7-1.93-1.45z"/>
<path fill-rule="nonzero" fill="#0d1008" d="m158,301-0.598-0.154c-0.681,2.6-3.02,4.33-5.58,4.33-0.482,0-0.963-0.0598-1.44-0.181-2.59-0.668-4.33-3.02-4.33-5.58,0-0.472,0.0664-0.95,0.183-1.43,0.664-2.6,3.01-4.33,5.58-4.34,0.465,0,0.946,0.0598,1.43,0.184,2.61,0.663,4.33,3.01,4.33,5.58,0,0.472-0.0498,0.951-0.166,1.43l0.598,0.153,0.598,0.153c0.149-0.578,0.216-1.16,0.216-1.74,0-3.13-2.09-5.97-5.26-6.78-0.581-0.149-1.16-0.223-1.74-0.223-3.14,0-5.98,2.11-6.77,5.27-0.149,0.578-0.232,1.16-0.232,1.74,0,3.12,2.11,5.97,5.28,6.78,0.581,0.149,1.16,0.221,1.74,0.221,3.12,0,5.96-2.1,6.77-5.27l-0.598-0.154z"/>
<path fill-rule="nonzero" fill="#0d1008" d="m180,272-0.598-0.154c-0.664,2.6-3.01,4.33-5.58,4.33-0.465,0-0.946-0.0581-1.43-0.181-2.61-0.666-4.33-3.01-4.33-5.57,0-0.473,0.0498-0.953,0.183-1.43,0.664-2.6,3.01-4.33,5.58-4.33,0.465,0,0.946,0.0581,1.43,0.181,2.59,0.663,4.33,3.01,4.33,5.57,0,0.473-0.0664,0.955-0.183,1.44l0.598,0.154,0.598,0.154c0.149-0.583,0.232-1.17,0.232-1.75,0-3.12-2.11-5.97-5.26-6.78-0.581-0.149-1.18-0.219-1.74-0.219-3.14-0.002-5.98,2.1-6.79,5.27-0.149,0.583-0.216,1.17-0.216,1.74,0,3.12,2.11,5.97,5.26,6.78,0.581,0.149,1.18,0.221,1.74,0.221,3.12,0.002,5.98-2.1,6.77-5.27l-0.598-0.154z"/>
<path fill-rule="nonzero" fill="#0d1008" d="m202,333c0-0.007-0.482-2.94-0.963-6.03-0.232-1.55-0.482-3.14-0.664-4.41-0.183-1.27-0.316-2.27-0.316-2.5v0.005c0-0.32-0.0166-1.08-0.0166-2.09,0-2.94,0.0996-8.08,0.648-10.5,0.548-2.36,1.05-5.01,1.05-7.29,0-1.16-0.133-2.23-0.482-3.14-0.349-0.903-0.98-1.67-1.93-2.02-0.332-0.108-0.946-0.737-1.38-1.35-0.216-0.301-0.415-0.594-0.548-0.809l-0.149-0.257-0.0498-0.0897-0.548,0.302,0.581-0.239c-0.0166-0.0166-0.199-0.492-0.531-1.03-0.149-0.272-0.349-0.56-0.565-0.822-0.232-0.259-0.482-0.503-0.83-0.658-1.44-0.603-3.11-0.674-4-0.677-0.399,0-0.631,0.0149-0.648,0.0166l0.0498,0.621,0.432-0.44-0.0996-0.108c-0.0996-0.103-0.249-0.271-0.365-0.43l-0.149-0.216-0.0332-0.0664-0.0166,0.003,0.0166-0.002-0.0166,0.002,0.0166-0.002c-0.0664-0.194-0.116-0.269-0.199-0.405-0.249-0.427-0.797-1.11-1.51-1.76-0.731-0.648-1.64-1.27-2.71-1.46l-0.332-0.0282c-0.98,0.0216-1.74,0.636-2.34,1.15-0.299,0.261-0.548,0.515-0.747,0.686l-0.216,0.174-0.0166,0.0116,0.083,0.134-0.0498-0.146-0.0332,0.0116,0.083,0.134-0.0498-0.146,0.133,0.4v-0.422l-0.133,0.0216,0.133,0.4v-0.422,0.516l0.432-0.279-0.432-0.237v0.516l0.432-0.279-0.332,0.216,0.399-0.098-0.0664-0.118-0.332,0.216,0.399-0.098-0.199,0.0482,0.199-0.0282v-0.0199l-0.199,0.0482,0.199-0.0282v-0.007c-0.0166-0.223-0.0332-1.17-0.332-2.59-0.282-1.43-0.863-3.38-1.98-5.75-0.996-2.11-1.83-4.26-2.46-5.98-0.316-0.858-0.581-1.61-0.797-2.19-0.216-0.591-0.365-0.985-0.498-1.25l-0.0166-0.0282,0.0166,0.0249c-0.315-0.57-0.614-1.06-1.03-1.43-0.415-0.38-0.98-0.611-1.59-0.604-0.365,0-0.731,0.0664-1.13,0.184-0.697,0.213-1.35,0.399-1.88,0.885-0.531,0.495-0.78,1.25-0.764,2.21,0,0.306,0.0166,0.639,0.0664,1.01,0.083,0.664,0.448,2.09,0.946,3.86,0.482,1.76,1.08,3.8,1.56,5.52,0.863,2.99,1.08,6.32,1.08,8.87,0,2.08-0.149,3.67-0.216,4.04l-0.0166,0.0681,0.0166-0.0714c-0.166,0.905-0.365,2.67-0.83,4.3-0.232,0.81-0.548,1.58-0.913,2.15-0.382,0.581-0.814,0.946-1.3,1.09-0.714,0.213-1.35,0.332-1.94,0.332-0.764-0.002-1.53-0.186-2.54-0.696-0.996-0.51-2.23-1.35-3.8-2.63-3.5-2.82-5.81-3.96-7.79-3.97-0.565,0-1.1,0.098-1.58,0.271-0.913,0.327-2.01,0.83-2.92,1.44-0.448,0.309-0.863,0.643-1.18,1.02-0.316,0.377-0.565,0.82-0.565,1.35,0,0.186,0.0332,0.38,0.0996,0.565v-0.003c0.116,0.312,0.149,0.473,0.249,0.714,0.0664,0.181,0.216,0.387,0.399,0.526,0.249,0.214,0.565,0.385,1.15,0.729,0.581,0.34,1.43,0.839,2.71,1.64,4.48,2.81,5.48,4.88,7.21,7.02,0.83,1.04,3.02,3.79,5.55,6.54,2.52,2.76,5.33,5.51,7.61,6.62,0.814,0.389,1.63,1.21,2.34,2.31,2.16,3.31,3.4,9.11,3.39,12.2,0,0.347-0.0166,0.659-0.0332,0.925l1.23,0.133c0.0332-0.32,0.0498-0.674,0.0498-1.06,0-2.25-0.565-5.59-1.61-8.66-0.531-1.53-1.2-3-1.98-4.22-0.797-1.22-1.73-2.22-2.86-2.76-1.93-0.917-4.75-3.62-7.22-6.33-2.49-2.71-4.65-5.44-5.5-6.48-1.59-2-2.86-4.41-7.51-7.3-2.29-1.42-3.27-1.94-3.62-2.19-0.183-0.134-0.116-0.0913-0.149-0.141-0.0332-0.0598-0.083-0.296-0.232-0.666v-0.003l-0.0166-0.113c0-0.103,0.0664-0.302,0.266-0.553,0.631-0.767,2.34-1.66,3.57-2.09,0.365-0.13,0.731-0.198,1.16-0.199,1.44-0.0133,3.59,0.92,7.01,3.69,1.61,1.3,2.89,2.19,4.02,2.77,1.13,0.576,2.13,0.834,3.11,0.832,0.78,0,1.51-0.153,2.31-0.384,0.847-0.254,1.49-0.873,1.96-1.6,0.714-1.1,1.13-2.5,1.41-3.8,0.266-1.29,0.415-2.5,0.531-3.11v-0.0681,0.0648c0.083-0.521,0.232-2.1,0.232-4.25,0-2.62-0.216-6.05-1.13-9.21-0.482-1.72-1.08-3.76-1.56-5.5-0.482-1.73-0.863-3.22-0.913-3.67-0.0332-0.332-0.0498-0.619-0.0498-0.867,0-0.799,0.166-1.09,0.382-1.3,0.216-0.218,0.664-0.399,1.36-0.598,0.316-0.0947,0.581-0.133,0.78-0.133,0.349,0.008,0.515,0.0863,0.764,0.289,0.232,0.204,0.482,0.576,0.764,1.1l0.0166,0.0266-0.0166-0.0282c0.0498,0.0897,0.216,0.513,0.432,1.08,0.614,1.74,1.76,5.05,3.29,8.28,1.08,2.27,1.61,4.12,1.89,5.46,0.266,1.35,0.282,2.14,0.299,2.43v0.0166-0.0216c0.0166,0.131,0.0166,0.274,0.133,0.458,0.0996,0.189,0.399,0.354,0.614,0.337,0.299-0.0133,0.415-0.116,0.548-0.193,0.216-0.144,0.399-0.319,0.614-0.518,0.316-0.296,0.681-0.636,1.05-0.887,0.365-0.254,0.714-0.395,0.946-0.39l0.133,0.01c0.764,0.121,1.66,0.742,2.32,1.4,0.332,0.327,0.614,0.658,0.814,0.918l0.216,0.32,0.0498,0.0847v0.005l0.332-0.128-0.349,0.078,0.0166,0.0498,0.332-0.128-0.349,0.078c0.0664,0.234,0.166,0.382,0.266,0.538,0.299,0.447,0.714,0.862,0.731,0.878l0.199,0.199,0.282-0.0183,0.149-0.007c0.0996-0.003,0.232-0.007,0.415-0.007,0.814-0.005,2.37,0.0897,3.5,0.58,0.0664,0.0232,0.232,0.139,0.382,0.32,0.232,0.269,0.465,0.661,0.631,0.976,0.083,0.158,0.149,0.297,0.199,0.395l0.0664,0.151v0.0315l0.0166,0.0315c0.0166,0.0133,0.349,0.614,0.847,1.29,0.498,0.671,1.11,1.43,1.94,1.77,0.548,0.218,0.913,0.628,1.2,1.31,0.266,0.681,0.399,1.61,0.399,2.68,0,2.1-0.482,4.69-1.01,7.01-0.598,2.66-0.681,7.75-0.681,10.7,0,1.02,0.0166,1.78,0.0166,2.11v0.0365-0.0332c0.0166,0.41,0.133,1.35,0.332,2.65,0.548,3.86,1.63,10.5,1.63,10.5l1.23-0.201z"/>
<g style="letter-spacing:0px;word-spacing:0px;" font-family="Sans" font-size="32px" line-height="125%" font-style="normal" font-weight="normal" fill="#1a1a1a">
<path d="m14.7,26.8-2.18,0c-0.000001-0.491-0.000001-0.885,0-1.18,0.0213-0.299,0.0427-0.523,0.064-0.672,0.0427-0.171,0.107-0.277,0.192-0.32,0.0853-0.0426,0.192-0.064,0.32-0.064h1.6v-4.86c-0.000003-0.213,0.032-0.384,0.096-0.512,0.0853-0.128,0.224-0.213,0.416-0.256,0.192-0.064,0.459-0.096,0.8-0.096,0.341-0.0213,0.779-0.032,1.31-0.032v5.76h3.26c-0.000009,0.512-0.0107,0.917-0.032,1.22-0.000009,0.277-0.0213,0.501-0.064,0.672-0.0213,0.149-0.064,0.245-0.128,0.288-0.064,0.0427-0.16,0.064-0.288,0.064h-2.75v9.31c-0.000006,0.341-0.000006,0.672,0,0.992,0.0213,0.299,0.064,0.565,0.128,0.8,0.0853,0.213,0.203,0.395,0.352,0.544,0.149,0.128,0.373,0.192,0.672,0.192,0.363,0.000002,0.683-0.032,0.96-0.096,0.277-0.0853,0.576-0.213,0.896-0.384,0.0427,0.171,0.0853,0.363,0.128,0.576s0.064,0.448,0.064,0.704c-0.000009,0.299-0.0853,0.544-0.256,0.736-0.171,0.171-0.395,0.309-0.672,0.416-0.256,0.107-0.544,0.181-0.864,0.224-0.32,0.0427-0.64,0.064-0.96,0.064-0.683,0-1.23-0.107-1.63-0.32-0.405-0.235-0.715-0.555-0.928-0.96-0.213-0.427-0.352-0.928-0.416-1.5-0.064-0.597-0.096-1.26-0.096-1.98v-9.31"/>
<path d="m22.3,26c-0.000001-0.171,0.0213-0.331,0.064-0.48,0.064-0.171,0.16-0.309,0.288-0.416,0.277-0.171,0.853-0.352,1.73-0.544,0.875-0.213,1.92-0.32,3.14-0.32,1.39,0.000016,2.39,0.288,3.01,0.864,0.64,0.576,0.96,1.59,0.96,3.04v1.7c-0.00001,0.917-0.00001,1.85,0,2.78-0.00001,0.917-0.0107,1.81-0.032,2.69-0.0213,0.853-0.0427,1.66-0.064,2.43-0.0213,0.768-0.0533,1.45-0.096,2.05-0.427,0.256-1.01,0.501-1.76,0.736-0.747,0.235-1.64,0.352-2.69,0.352-0.576,0-1.14-0.0427-1.7-0.128-0.555-0.0853-1.05-0.299-1.47-0.64-0.427-0.341-0.768-0.832-1.02-1.47-0.256-0.661-0.384-1.54-0.384-2.62-0.000001-1.11,0.117-2.01,0.352-2.69,0.256-0.683,0.576-1.22,0.96-1.6,0.405-0.384,0.864-0.64,1.38-0.768,0.512-0.128,1.03-0.192,1.57-0.192,0.363,0.00001,0.757,0.032,1.18,0.096,0.448,0.0427,0.832,0.149,1.15,0.32v-2.53c-0.000008-0.747-0.171-1.25-0.512-1.5-0.341-0.256-0.832-0.384-1.47-0.384-0.811,0.000014-1.6,0.0747-2.37,0.224-0.768,0.128-1.39,0.288-1.86,0.48-0.149-0.256-0.245-0.512-0.288-0.768-0.0427-0.277-0.064-0.512-0.064-0.704m6.56,7.01c-0.213-0.107-0.459-0.181-0.736-0.224-0.277-0.0427-0.533-0.064-0.768-0.064-0.32,0.000008-0.629,0.0427-0.928,0.128-0.277,0.064-0.523,0.213-0.736,0.448s-0.384,0.565-0.512,0.992c-0.128,0.405-0.192,0.96-0.192,1.66-0.000004,0.576,0.0427,1.05,0.128,1.41,0.107,0.363,0.245,0.651,0.416,0.864,0.192,0.192,0.416,0.32,0.672,0.384s0.544,0.096,0.864,0.096c0.363,0.000002,0.693-0.0533,0.992-0.16,0.32-0.107,0.555-0.235,0.704-0.384,0.0213-0.256,0.032-0.587,0.032-0.992,0.0213-0.427,0.032-0.875,0.032-1.34,0.0213-0.469,0.032-0.949,0.032-1.44-0.000008-0.491-0.000008-0.949,0-1.38"/>
<path d="m34.1,25.5c1.34-0.853,2.9-1.28,4.67-1.28,0.789,0.000016,1.5,0.107,2.14,0.32,0.64,0.192,1.18,0.544,1.63,1.06,0.469,0.491,0.821,1.17,1.06,2.05,0.256,0.853,0.384,1.93,0.384,3.23-0.000012,2.15-0.149,3.89-0.448,5.22-0.277,1.3-0.651,2.3-1.12,3.01-0.469,0.704-0.992,1.17-1.57,1.41-0.555,0.235-1.1,0.352-1.63,0.352-0.597,0-1.11-0.096-1.54-0.288-0.427-0.171-0.757-0.373-0.992-0.608v6.66c-0.213,0.0853-0.437,0.139-0.672,0.16-0.235,0.0427-0.459,0.064-0.672,0.064-0.448-0.000006-0.768-0.0853-0.96-0.256-0.192-0.149-0.288-0.437-0.288-0.864v-20.2m2.59,12c0.235,0.363,0.501,0.629,0.8,0.8s0.608,0.256,0.928,0.256c0.256,0.000002,0.533-0.064,0.832-0.192,0.32-0.149,0.608-0.48,0.864-0.992,0.277-0.512,0.512-1.25,0.704-2.21,0.192-0.981,0.288-2.3,0.288-3.97-0.000009-0.96-0.0533-1.74-0.16-2.34-0.107-0.597-0.267-1.07-0.48-1.41-0.192-0.363-0.448-0.608-0.768-0.736-0.299-0.128-0.651-0.192-1.06-0.192-0.725,0.000014-1.38,0.203-1.95,0.608v10.4"/>
</g>
<g style="letter-spacing:0px;word-spacing:0px;" font-family="Sans" font-size="32px" line-height="80.00000119%" font-style="normal" font-weight="normal" fill="#1a1a1a">
<path style="text-align:center;" d="m125,15c-0.213-0.171-0.427-0.277-0.64-0.32-0.213-0.064-0.491-0.096-0.832-0.096-0.363,0.000014-0.715,0.0854-1.06,0.256-0.32,0.171-0.619,0.491-0.896,0.96-0.256,0.448-0.469,1.09-0.64,1.92-0.149,0.832-0.224,1.9-0.224,3.2,0,1.19,0.0533,2.17,0.16,2.91,0.107,0.747,0.267,1.33,0.48,1.76,0.213,0.405,0.459,0.683,0.736,0.832,0.299,0.128,0.64,0.192,1.02,0.192,0.363,0.000002,0.704-0.032,1.02-0.096,0.32-0.0853,0.608-0.213,0.864-0.384v-11.1m0-8.7c-0.00001-0.299,0.032-0.523,0.096-0.672,0.0853-0.171,0.224-0.288,0.416-0.352,0.192-0.0853,0.448-0.128,0.768-0.128,0.341-0.0213,0.779-0.032,1.31-0.032v22.9c-0.533,0.256-1.18,0.48-1.95,0.672-0.747,0.192-1.62,0.288-2.62,0.288-0.704-0.000001-1.38-0.0853-2.02-0.256-0.619-0.149-1.17-0.491-1.66-1.02-0.469-0.533-0.843-1.31-1.12-2.34-0.277-1.02-0.416-2.4-0.416-4.13,0-1.58,0.128-2.93,0.384-4.06s0.608-2.05,1.06-2.75c0.448-0.725,0.971-1.25,1.57-1.57,0.597-0.341,1.24-0.512,1.92-0.512,0.96,0.000016,1.72,0.213,2.27,0.64v-6.66"/>
<path style="text-align:center;" d="m130,20.7c0-2.92,0.459-5.03,1.38-6.34,0.939-1.32,2.25-1.98,3.94-1.98,0.832,0.000016,1.56,0.128,2.18,0.384,0.64,0.235,1.16,0.672,1.57,1.31,0.405,0.619,0.704,1.46,0.896,2.53,0.213,1.05,0.32,2.38,0.32,4-0.00001,2.99-0.448,5.14-1.34,6.46-0.896,1.3-2.2,1.95-3.9,1.95-0.832-0.000001-1.56-0.096-2.18-0.288-0.619-0.192-1.14-0.576-1.57-1.15-0.427-0.597-0.747-1.44-0.96-2.53-0.213-1.11-0.32-2.56-0.32-4.35m2.82,0.064c0,1.32,0.0427,2.38,0.128,3.17,0.107,0.789,0.256,1.4,0.448,1.82,0.192,0.427,0.427,0.715,0.704,0.864,0.299,0.128,0.629,0.192,0.992,0.192,0.341,0.000002,0.651-0.0853,0.928-0.256,0.299-0.171,0.555-0.491,0.768-0.96s0.373-1.1,0.48-1.89c0.128-0.789,0.192-1.81,0.192-3.07-0.00001-1.28-0.0533-2.3-0.16-3.07-0.0853-0.789-0.224-1.4-0.416-1.82-0.171-0.427-0.395-0.715-0.672-0.864s-0.608-0.224-0.992-0.224c-0.363,0.000014-0.693,0.0854-0.992,0.256-0.277,0.171-0.523,0.48-0.736,0.928s-0.384,1.08-0.512,1.89c-0.107,0.789-0.16,1.8-0.16,3.04"/>
<path style="text-align:center;" d="m152,27.8c-0.619,0.341-1.35,0.619-2.21,0.832-0.832,0.213-1.69,0.32-2.56,0.32-0.96-0.000001-1.75-0.107-2.37-0.32-0.619-0.213-1.11-0.544-1.47-0.992-0.363-0.448-0.619-1-0.768-1.66-0.128-0.661-0.192-1.44-0.192-2.34v-10.5c0-0.128,0.0107-0.224,0.032-0.288,0.0427-0.0853,0.139-0.139,0.288-0.16,0.171-0.0426,0.437-0.064,0.8-0.064,0.363-0.0213,0.885-0.032,1.57-0.032v11.2c-0.00001,1.05,0.139,1.78,0.416,2.21,0.277,0.405,0.853,0.608,1.73,0.608,0.299,0.000002,0.64-0.032,1.02-0.096,0.405-0.0853,0.779-0.245,1.12-0.48v-12.9c-0.00001-0.128,0.0107-0.224,0.032-0.288,0.0427-0.0853,0.139-0.139,0.288-0.16,0.171-0.0426,0.427-0.064,0.768-0.064,0.363-0.0213,0.864-0.032,1.5-0.032v15.2"/>
<path style="text-align:center;" d="m155,6.35c0-0.299,0.032-0.533,0.096-0.704s0.192-0.288,0.384-0.352c0.192-0.0853,0.459-0.128,0.8-0.128,0.341-0.0213,0.779-0.032,1.31-0.032v8.32c0.427-0.363,0.917-0.64,1.47-0.832,0.555-0.192,1.21-0.288,1.95-0.288,0.64,0.000016,1.21,0.117,1.7,0.352,0.491,0.213,0.896,0.565,1.22,1.06,0.32,0.491,0.565,1.14,0.736,1.95,0.171,0.789,0.256,1.77,0.256,2.94-0.00001,2.3-0.203,4.14-0.608,5.5-0.384,1.37-0.885,2.41-1.5,3.14-0.597,0.704-1.26,1.16-1.98,1.38-0.725,0.213-1.42,0.32-2.08,0.32-1.69-0.000001-2.93-0.32-3.74-0.96v-21.7m2.59,19.9c0.149,0.107,0.341,0.203,0.576,0.288,0.256,0.0853,0.565,0.128,0.928,0.128,0.277,0.000002,0.587-0.0853,0.928-0.256s0.651-0.512,0.928-1.02c0.299-0.533,0.544-1.29,0.736-2.27,0.213-0.981,0.32-2.28,0.32-3.9-0.00001-1.71-0.181-2.89-0.544-3.55-0.363-0.661-0.907-0.992-1.63-0.992-0.832,0.000014-1.58,0.299-2.24,0.896v10.7"/>
<path style="text-align:center;" d="m170,28.1c-0.00001,0.128-0.0213,0.235-0.064,0.32-0.0213,0.064-0.117,0.117-0.288,0.16-0.149,0.0213-0.405,0.032-0.768,0.032h-1.47v-22.3c0-0.299,0.032-0.523,0.096-0.672,0.0853-0.171,0.224-0.288,0.416-0.352,0.192-0.0853,0.459-0.128,0.8-0.128,0.341-0.0213,0.768-0.032,1.28-0.032v23"/>
<path style="text-align:center;" d="m178,12.3c2.71,0.000016,4.06,1.72,4.06,5.15-0.00001,0.704-0.032,1.43-0.096,2.18-0.0427,0.747-0.128,1.41-0.256,1.98-0.555,0.107-1.14,0.192-1.76,0.256-0.619,0.064-1.24,0.117-1.86,0.16-0.597,0.0427-1.16,0.0747-1.7,0.096-0.533,0.000006-0.992,0.000006-1.38,0,0.0213,0.853,0.096,1.56,0.224,2.11,0.149,0.555,0.341,0.992,0.576,1.31,0.235,0.32,0.533,0.544,0.896,0.672s0.789,0.192,1.28,0.192c0.64,0.000002,1.27-0.0853,1.89-0.256,0.619-0.192,1.21-0.437,1.76-0.736,0.0853,0.235,0.139,0.523,0.16,0.864,0.0427,0.341,0.064,0.64,0.064,0.896-0.00001,0.256-0.117,0.491-0.352,0.704s-0.555,0.405-0.96,0.576c-0.405,0.149-0.875,0.267-1.41,0.352-0.533,0.0853-1.1,0.128-1.7,0.128-0.747-0.000001-1.44-0.096-2.08-0.288-0.619-0.192-1.15-0.555-1.6-1.09-0.448-0.555-0.8-1.32-1.06-2.3-0.256-0.981-0.384-2.25-0.384-3.81,0-2.01,0.16-3.61,0.48-4.8,0.341-1.22,0.768-2.14,1.28-2.78,0.533-0.64,1.14-1.06,1.82-1.25,0.683-0.213,1.38-0.32,2.08-0.32m-0.288,2.27c-0.32,0.000014-0.629,0.0854-0.928,0.256-0.299,0.149-0.576,0.437-0.832,0.864-0.235,0.405-0.437,0.96-0.608,1.66-0.149,0.683-0.245,1.57-0.288,2.66,0.299,0.000008,0.64,0.000008,1.02,0,0.384,0.000008,0.768-0.0107,1.15-0.032,0.405-0.0427,0.789-0.0853,1.15-0.128,0.384-0.0427,0.715-0.107,0.992-0.192,0.064-0.299,0.107-0.619,0.128-0.96,0.0213-0.341,0.032-0.661,0.032-0.96-0.0213-1.15-0.16-1.96-0.416-2.43-0.256-0.491-0.725-0.736-1.41-0.736"/>
<path style="text-align:center;" d="m136,40.5-2.18,0v-1.18c0.0213-0.299,0.0427-0.523,0.064-0.672,0.0427-0.171,0.107-0.277,0.192-0.32,0.0853-0.0426,0.192-0.064,0.32-0.064h1.6v-4.86c0-0.213,0.032-0.384,0.096-0.512,0.0853-0.128,0.224-0.213,0.416-0.256,0.192-0.064,0.459-0.096,0.8-0.096,0.341-0.0213,0.779-0.032,1.31-0.032v5.76h3.26c-0.00001,0.512-0.0107,0.917-0.032,1.22-0.00001,0.277-0.0213,0.501-0.064,0.672-0.0213,0.149-0.064,0.245-0.128,0.288-0.064,0.0427-0.16,0.064-0.288,0.064h-2.75v9.31c-0.00001,0.341-0.00001,0.672,0,0.992,0.0213,0.299,0.064,0.565,0.128,0.8,0.0853,0.213,0.203,0.395,0.352,0.544,0.149,0.128,0.373,0.192,0.672,0.192,0.363,0.000002,0.683-0.032,0.96-0.096,0.277-0.0853,0.576-0.213,0.896-0.384,0.0427,0.171,0.0853,0.363,0.128,0.576s0.064,0.448,0.064,0.704c-0.00001,0.299-0.0853,0.544-0.256,0.736-0.171,0.171-0.395,0.309-0.672,0.416-0.256,0.107-0.544,0.181-0.864,0.224-0.32,0.0427-0.64,0.064-0.96,0.064-0.683,0-1.23-0.107-1.63-0.32-0.405-0.235-0.715-0.555-0.928-0.96-0.213-0.427-0.352-0.928-0.416-1.5-0.064-0.597-0.096-1.26-0.096-1.98v-9.31"/>
<path style="text-align:center;" d="m143,39.7c0-0.171,0.0213-0.331,0.064-0.48,0.064-0.171,0.16-0.309,0.288-0.416,0.277-0.171,0.853-0.352,1.73-0.544,0.875-0.213,1.92-0.32,3.14-0.32,1.39,0.000016,2.39,0.288,3.01,0.864,0.64,0.576,0.96,1.59,0.96,3.04v1.7c-0.00001,0.917-0.00001,1.85,0,2.78-0.00001,0.917-0.0107,1.81-0.032,2.69-0.0213,0.853-0.0427,1.66-0.064,2.43-0.0213,0.768-0.0533,1.45-0.096,2.05-0.427,0.256-1.01,0.501-1.76,0.736-0.747,0.235-1.64,0.352-2.69,0.352-0.576,0-1.14-0.0427-1.7-0.128-0.555-0.0853-1.05-0.299-1.47-0.64-0.427-0.341-0.768-0.832-1.02-1.47-0.256-0.661-0.384-1.54-0.384-2.62,0-1.11,0.117-2.01,0.352-2.69,0.256-0.683,0.576-1.22,0.96-1.6,0.405-0.384,0.864-0.64,1.38-0.768,0.512-0.128,1.03-0.192,1.57-0.192,0.363,0.00001,0.757,0.032,1.18,0.096,0.448,0.0427,0.832,0.149,1.15,0.32v-2.53c-0.00001-0.747-0.171-1.25-0.512-1.5-0.341-0.256-0.832-0.384-1.47-0.384-0.811,0.000014-1.6,0.0747-2.37,0.224-0.768,0.128-1.39,0.288-1.86,0.48-0.149-0.256-0.245-0.512-0.288-0.768-0.0427-0.277-0.064-0.512-0.064-0.704m6.56,7.01c-0.213-0.107-0.459-0.181-0.736-0.224-0.277-0.0427-0.533-0.064-0.768-0.064-0.32,0.000008-0.629,0.0427-0.928,0.128-0.277,0.064-0.523,0.213-0.736,0.448s-0.384,0.565-0.512,0.992c-0.128,0.405-0.192,0.96-0.192,1.66,0,0.576,0.0427,1.05,0.128,1.41,0.107,0.363,0.245,0.651,0.416,0.864,0.192,0.192,0.416,0.32,0.672,0.384s0.544,0.096,0.864,0.096c0.363,0.000002,0.693-0.0533,0.992-0.16,0.32-0.107,0.555-0.235,0.704-0.384,0.0213-0.256,0.032-0.587,0.032-0.992,0.0213-0.427,0.032-0.875,0.032-1.34,0.0213-0.469,0.032-0.949,0.032-1.44-0.00001-0.491-0.00001-0.949,0-1.38"/>
<path style="text-align:center;" d="m155,39.2c1.34-0.853,2.9-1.28,4.67-1.28,0.789,0.000016,1.5,0.107,2.14,0.32,0.64,0.192,1.18,0.544,1.63,1.06,0.469,0.491,0.821,1.17,1.06,2.05,0.256,0.853,0.384,1.93,0.384,3.23-0.00001,2.15-0.149,3.89-0.448,5.22-0.277,1.3-0.651,2.3-1.12,3.01-0.469,0.704-0.992,1.17-1.57,1.41-0.555,0.235-1.1,0.352-1.63,0.352-0.597,0-1.11-0.096-1.54-0.288-0.427-0.171-0.757-0.373-0.992-0.608v6.66c-0.213,0.0853-0.437,0.139-0.672,0.16-0.235,0.0427-0.459,0.064-0.672,0.064-0.448-0.000006-0.768-0.0853-0.96-0.256-0.192-0.149-0.288-0.437-0.288-0.864v-20.2m2.59,12c0.235,0.363,0.501,0.629,0.8,0.8s0.608,0.256,0.928,0.256c0.256,0.000002,0.533-0.064,0.832-0.192,0.32-0.149,0.608-0.48,0.864-0.992,0.277-0.512,0.512-1.25,0.704-2.21,0.192-0.981,0.288-2.3,0.288-3.97-0.00001-0.96-0.0533-1.74-0.16-2.34-0.107-0.597-0.267-1.07-0.48-1.41-0.192-0.363-0.448-0.608-0.768-0.736-0.299-0.128-0.651-0.192-1.06-0.192-0.725,0.000014-1.38,0.203-1.95,0.608v10.4"/>
</g>
<g style="letter-spacing:0px;word-spacing:0px;" font-family="Sans" font-size="32px" line-height="125%" font-style="normal" font-weight="normal" fill="#1a1a1a">
<path d="m258,24.9c0.832,0.000017,1.5,0.064,2.02,0.192,0.533,0.128,0.949,0.288,1.25,0.48,0.299,0.171,0.501,0.363,0.608,0.576s0.16,0.395,0.16,0.544c-0.00001,0.448-0.192,0.885-0.576,1.31-0.917-0.555-1.96-0.832-3.14-0.832-0.747,0.000014-1.35,0.139-1.82,0.416-0.469,0.256-0.704,0.629-0.704,1.12-0.00001,0.299,0.0747,0.597,0.224,0.896,0.149,0.277,0.501,0.64,1.06,1.09l2.98,2.4c0.683,0.683,1.16,1.32,1.44,1.92,0.299,0.576,0.448,1.27,0.448,2.08-0.00001,1.43-0.469,2.53-1.41,3.3-0.939,0.768-2.23,1.15-3.87,1.15-1.15,0-2.09-0.128-2.82-0.384-0.725-0.277-1.09-0.693-1.09-1.25,0-0.192,0.032-0.416,0.096-0.672s0.181-0.533,0.352-0.832c0.917,0.533,1.98,0.8,3.2,0.8,0.811,0.000002,1.44-0.171,1.89-0.512,0.469-0.341,0.704-0.832,0.704-1.47-0.00001-0.427-0.096-0.843-0.288-1.25-0.171-0.405-0.501-0.821-0.992-1.25l-3.1-2.66c-0.725-0.597-1.22-1.17-1.47-1.73-0.235-0.576-0.352-1.13-0.352-1.66,0-1.11,0.416-2.02,1.25-2.72,0.853-0.704,2.18-1.06,3.97-1.06"/>
<path d="m264,25.7c-0.0213-0.128-0.0107-0.224,0.032-0.288,0.0427-0.0853,0.16-0.139,0.352-0.16,0.192-0.0426,0.48-0.064,0.864-0.064,0.384-0.0213,0.917-0.032,1.6-0.032l0.96,5.22c0.171,0.896,0.32,1.8,0.448,2.72,0.128,0.917,0.245,1.75,0.352,2.5,0.107,0.875,0.213,1.73,0.32,2.56h0.192c0.0427-0.277,0.096-0.64,0.16-1.09,0.064-0.469,0.128-0.971,0.192-1.5,0.0853-0.555,0.171-1.11,0.256-1.66,0.0853-0.576,0.181-1.11,0.288-1.6l0.992-6.14c0.0427-0.235,0.107-0.384,0.192-0.448,0.107-0.064,0.331-0.096,0.672-0.096h1.7l1.25,6.72c0.128,0.619,0.245,1.27,0.352,1.95,0.128,0.661,0.245,1.28,0.352,1.86,0.107,0.683,0.203,1.35,0.288,2.02h0.16c0.0213-0.469,0.064-1.01,0.128-1.63,0.0853-0.64,0.171-1.31,0.256-2.02,0.0853-0.704,0.181-1.41,0.288-2.11,0.107-0.704,0.213-1.38,0.32-2.02l0.832-4.64c0.0213-0.149,0.0533-0.256,0.096-0.32,0.0427-0.0853,0.139-0.139,0.288-0.16,0.171-0.0426,0.427-0.064,0.768-0.064,0.341-0.0213,0.811-0.032,1.41-0.032-0.64,3.01-1.21,5.7-1.7,8.06-0.213,1-0.427,1.99-0.64,2.98-0.192,0.96-0.373,1.81-0.544,2.56-0.149,0.747-0.277,1.35-0.384,1.82-0.107,0.448-0.171,0.672-0.192,0.672-0.107,0.0213-0.245,0.0427-0.416,0.064-0.149,0.0213-0.331,0.032-0.544,0.032h-0.704c-0.235,0-0.501-0.128-0.8-0.384-0.277-0.277-0.469-0.704-0.576-1.28l-0.416-2.14c-0.128-0.661-0.256-1.35-0.384-2.08-0.128-0.725-0.245-1.44-0.352-2.14-0.0854-0.704-0.171-1.38-0.256-2.02-0.064-0.64-0.117-1.21-0.16-1.7-0.064,0.491-0.139,1.07-0.224,1.73-0.064,0.64-0.149,1.31-0.256,2.02-0.0853,0.704-0.192,1.42-0.32,2.14-0.107,0.704-0.224,1.39-0.352,2.05l-0.736,3.71c-0.256,0.0213-0.512,0.0427-0.768,0.064-0.235,0.0213-0.48,0.032-0.736,0.032h-0.672c-0.299,0-0.533-0.149-0.704-0.448s-0.309-0.672-0.416-1.12c-0.107-0.491-0.235-1.07-0.384-1.73-0.149-0.661-0.309-1.37-0.48-2.11-0.171-0.747-0.341-1.51-0.512-2.3-0.171-0.811-0.341-1.6-0.512-2.37-0.384-1.79-0.789-3.65-1.22-5.57"/>
<path d="m284,40.7c-0.00001,0.128-0.0213,0.235-0.064,0.32-0.0213,0.064-0.117,0.117-0.288,0.16-0.171,0.0213-0.437,0.032-0.8,0.032h-1.5v-14.8c0-0.299,0.032-0.523,0.096-0.672,0.0853-0.171,0.224-0.288,0.416-0.352,0.213-0.0853,0.491-0.128,0.832-0.128,0.341-0.0213,0.779-0.032,1.31-0.032v15.5m-2.62-20.6c0.0213-0.576,0.149-1.03,0.384-1.38,0.235-0.363,0.608-0.544,1.12-0.544,0.491,0.000023,0.832,0.139,1.02,0.416,0.192,0.277,0.277,0.757,0.256,1.44-0.00001,0.661-0.128,1.17-0.384,1.54-0.235,0.363-0.597,0.544-1.09,0.544-0.427,0.000019-0.757-0.149-0.992-0.448-0.213-0.299-0.32-0.821-0.32-1.57"/>
<path d="m287,26.2c1.34-0.853,2.9-1.28,4.67-1.28,0.789,0.000017,1.5,0.107,2.14,0.32,0.64,0.192,1.18,0.544,1.63,1.06,0.469,0.491,0.821,1.17,1.06,2.05,0.256,0.853,0.384,1.93,0.384,3.23-0.00001,2.15-0.149,3.89-0.448,5.22-0.277,1.3-0.651,2.3-1.12,3.01-0.469,0.704-0.992,1.17-1.57,1.41-0.555,0.235-1.1,0.352-1.63,0.352-0.597,0-1.11-0.096-1.54-0.288-0.427-0.171-0.757-0.373-0.992-0.608v6.66c-0.213,0.0853-0.437,0.139-0.672,0.16-0.235,0.0427-0.459,0.064-0.672,0.064-0.448-0.000006-0.768-0.0853-0.96-0.256-0.192-0.149-0.288-0.437-0.288-0.864v-20.2m2.59,12c0.235,0.363,0.501,0.629,0.8,0.8s0.608,0.256,0.928,0.256c0.256,0.000002,0.533-0.064,0.832-0.192,0.32-0.149,0.608-0.48,0.864-0.992,0.277-0.512,0.512-1.25,0.704-2.21,0.192-0.981,0.288-2.3,0.288-3.97-0.00001-0.96-0.0533-1.74-0.16-2.34-0.107-0.597-0.267-1.07-0.48-1.41-0.192-0.363-0.448-0.608-0.768-0.736-0.299-0.128-0.651-0.192-1.06-0.192-0.725,0.000014-1.38,0.203-1.95,0.608v10.4"/>
<path d="m305,24.9c2.71,0.000017,4.06,1.72,4.06,5.15-0.00001,0.704-0.032,1.43-0.096,2.18-0.0427,0.747-0.128,1.41-0.256,1.98-0.555,0.107-1.14,0.192-1.76,0.256-0.619,0.064-1.24,0.117-1.86,0.16-0.597,0.0427-1.16,0.0747-1.7,0.096-0.533,0.000007-0.992,0.000007-1.38,0,0.0213,0.853,0.096,1.56,0.224,2.11,0.149,0.555,0.341,0.992,0.576,1.31,0.235,0.32,0.533,0.544,0.896,0.672s0.789,0.192,1.28,0.192c0.64,0.000003,1.27-0.0853,1.89-0.256,0.619-0.192,1.21-0.437,1.76-0.736,0.0853,0.235,0.139,0.523,0.16,0.864,0.0426,0.341,0.064,0.64,0.064,0.896-0.00001,0.256-0.117,0.491-0.352,0.704s-0.555,0.405-0.96,0.576c-0.405,0.149-0.875,0.267-1.41,0.352-0.533,0.0853-1.1,0.128-1.7,0.128-0.747,0-1.44-0.096-2.08-0.288-0.619-0.192-1.15-0.555-1.6-1.09-0.448-0.555-0.8-1.32-1.06-2.3-0.256-0.981-0.384-2.25-0.384-3.81,0-2.01,0.16-3.61,0.48-4.8,0.341-1.22,0.768-2.14,1.28-2.78,0.533-0.64,1.14-1.06,1.82-1.25,0.683-0.213,1.38-0.32,2.08-0.32m-0.288,2.27c-0.32,0.000014-0.629,0.0854-0.928,0.256-0.299,0.149-0.576,0.437-0.832,0.864-0.235,0.405-0.437,0.96-0.608,1.66-0.149,0.683-0.245,1.57-0.288,2.66,0.299,0.000009,0.64,0.000009,1.02,0,0.384,0.000009,0.768-0.0107,1.15-0.032,0.405-0.0427,0.789-0.0853,1.15-0.128,0.384-0.0427,0.715-0.107,0.992-0.192,0.064-0.299,0.107-0.619,0.128-0.96,0.0213-0.341,0.032-0.661,0.032-0.96-0.0213-1.15-0.16-1.96-0.416-2.43-0.256-0.491-0.725-0.736-1.41-0.736"/>
</g>
<g style="letter-spacing:0px;word-spacing:0px;" font-family="Sans" font-size="32px" line-height="125%" font-style="normal" font-weight="normal" fill="#1a1a1a">
<path d="m269,218c-0.213-0.171-0.427-0.277-0.64-0.32-0.213-0.064-0.491-0.096-0.832-0.096-0.363,0.00002-0.715,0.0854-1.06,0.256-0.32,0.171-0.619,0.491-0.896,0.96-0.256,0.448-0.469,1.09-0.64,1.92-0.149,0.832-0.224,1.9-0.224,3.2,0,1.19,0.0533,2.17,0.16,2.91,0.107,0.747,0.267,1.33,0.48,1.76,0.213,0.405,0.459,0.683,0.736,0.832,0.299,0.128,0.64,0.192,1.02,0.192,0.363,0.00001,0.704-0.032,1.02-0.096,0.32-0.0853,0.608-0.213,0.864-0.384v-11.1m0-8.7c0-0.299,0.032-0.523,0.096-0.672,0.0853-0.171,0.224-0.288,0.416-0.352,0.192-0.0853,0.448-0.128,0.768-0.128,0.341-0.0213,0.779-0.032,1.31-0.032v22.9c-0.533,0.256-1.18,0.48-1.95,0.672-0.747,0.192-1.62,0.288-2.62,0.288-0.704,0-1.38-0.0853-2.02-0.256-0.619-0.149-1.17-0.491-1.66-1.02-0.469-0.533-0.843-1.31-1.12-2.34-0.277-1.02-0.416-2.4-0.416-4.13,0-1.58,0.128-2.93,0.384-4.06s0.608-2.05,1.06-2.75c0.448-0.725,0.971-1.25,1.57-1.57,0.597-0.341,1.24-0.512,1.92-0.512,0.96,0.00002,1.72,0.213,2.27,0.64v-6.66"/>
<path d="m275,217c0.619-0.427,1.3-0.768,2.05-1.02,0.747-0.277,1.51-0.416,2.3-0.416,0.811,0.00002,1.39,0.117,1.73,0.352,0.341,0.235,0.512,0.565,0.512,0.992,0,0.171-0.0213,0.405-0.064,0.704-0.0427,0.277-0.117,0.555-0.224,0.832-0.491-0.256-1-0.384-1.54-0.384-0.363,0.00002-0.736,0.064-1.12,0.192-0.363,0.107-0.693,0.288-0.992,0.544l-0.032,12.6c0,0.128-0.0213,0.235-0.064,0.32-0.0213,0.064-0.117,0.117-0.288,0.16-0.149,0.0213-0.405,0.032-0.768,0.032h-1.5v-14.9"/>
<path d="m283,217c0-0.171,0.0213-0.331,0.064-0.48,0.064-0.171,0.16-0.309,0.288-0.416,0.277-0.171,0.853-0.352,1.73-0.544,0.875-0.213,1.92-0.32,3.14-0.32,1.39,0.00002,2.39,0.288,3.01,0.864,0.64,0.576,0.96,1.59,0.96,3.04v1.7c-0.00001,0.917-0.00001,1.85,0,2.78-0.00001,0.917-0.0107,1.81-0.032,2.69-0.0213,0.853-0.0427,1.66-0.064,2.43-0.0213,0.768-0.0533,1.45-0.096,2.05-0.427,0.256-1.01,0.501-1.76,0.736-0.747,0.235-1.64,0.352-2.69,0.352-0.576,0-1.14-0.0427-1.7-0.128-0.555-0.0853-1.05-0.299-1.47-0.64-0.427-0.341-0.768-0.832-1.02-1.47-0.256-0.661-0.384-1.54-0.384-2.62,0-1.11,0.117-2.01,0.352-2.69,0.256-0.683,0.576-1.22,0.96-1.6,0.405-0.384,0.864-0.64,1.38-0.768,0.512-0.128,1.03-0.192,1.57-0.192,0.363,0.00001,0.757,0.032,1.18,0.096,0.448,0.0427,0.832,0.149,1.15,0.32v-2.53c0-0.747-0.171-1.25-0.512-1.5-0.341-0.256-0.832-0.384-1.47-0.384-0.811,0.00002-1.6,0.0747-2.37,0.224-0.768,0.128-1.39,0.288-1.86,0.48-0.149-0.256-0.245-0.512-0.288-0.768-0.0427-0.277-0.064-0.512-0.064-0.704m6.56,7.01c-0.213-0.107-0.459-0.181-0.736-0.224-0.277-0.0427-0.533-0.064-0.768-0.064-0.32,0.00001-0.629,0.0427-0.928,0.128-0.277,0.064-0.523,0.213-0.736,0.448s-0.384,0.565-0.512,0.992c-0.128,0.405-0.192,0.96-0.192,1.66,0,0.576,0.0427,1.05,0.128,1.41,0.107,0.363,0.245,0.651,0.416,0.864,0.192,0.192,0.416,0.32,0.672,0.384s0.544,0.096,0.864,0.096c0.363,0.00001,0.693-0.0533,0.992-0.16,0.32-0.107,0.555-0.235,0.704-0.384,0.0213-0.256,0.032-0.587,0.032-0.992,0.0213-0.427,0.032-0.875,0.032-1.34,0.0213-0.469,0.032-0.949,0.032-1.44v-1.38"/>
<path d="m300,215c0.213,0.00002,0.459,0.0214,0.736,0.064,0.299,0.0427,0.587,0.107,0.864,0.192h3.84c0.064,0.107,0.117,0.267,0.16,0.48,0.064,0.213,0.096,0.469,0.096,0.768-0.00001,0.661-0.299,0.992-0.896,0.992-0.299,0.00002-0.683-0.0533-1.15-0.16,0.363,0.363,0.651,0.832,0.864,1.41,0.235,0.576,0.352,1.26,0.352,2.05-0.00001,1.71-0.405,3.07-1.22,4.1-0.789,1-2.11,1.5-3.97,1.5-0.597,0.00001-1.08-0.0427-1.44-0.128-0.213,0.213-0.405,0.448-0.576,0.704s-0.256,0.491-0.256,0.704c0,0.149,0.096,0.277,0.288,0.384,0.192,0.0853,0.459,0.16,0.8,0.224s0.736,0.128,1.18,0.192c0.469,0.064,0.971,0.128,1.5,0.192,0.64,0.107,1.22,0.245,1.73,0.416,0.512,0.149,0.949,0.373,1.31,0.672,0.384,0.277,0.672,0.629,0.864,1.06,0.213,0.427,0.32,0.96,0.32,1.6-0.00001,0.683-0.117,1.33-0.352,1.95-0.235,0.64-0.608,1.19-1.12,1.66-0.491,0.491-1.13,0.875-1.92,1.15-0.768,0.299-1.69,0.448-2.75,0.448-1.07,0-1.94-0.107-2.62-0.32-0.661-0.192-1.18-0.459-1.57-0.8-0.363-0.341-0.608-0.715-0.736-1.12s-0.192-0.821-0.192-1.25c0-0.789,0.235-1.51,0.704-2.18,0.469-0.64,1.05-1.19,1.73-1.66-0.619-0.171-1.11-0.395-1.47-0.672-0.341-0.299-0.501-0.661-0.48-1.09,0.0213-0.427,0.213-0.885,0.576-1.38,0.363-0.512,0.853-1.01,1.47-1.5-0.747-0.491-1.27-1.15-1.57-1.98-0.277-0.853-0.416-1.79-0.416-2.82,0-1.07,0.128-1.97,0.384-2.72,0.256-0.747,0.619-1.34,1.09-1.79,0.469-0.469,1.02-0.811,1.66-1.02,0.661-0.213,1.39-0.32,2.18-0.32m-0.096,1.92c-0.683,0.00002-1.27,0.299-1.76,0.896-0.469,0.576-0.704,1.57-0.704,2.98,0,0.576,0.032,1.09,0.096,1.54,0.064,0.448,0.181,0.832,0.352,1.15,0.171,0.299,0.405,0.533,0.704,0.704,0.32,0.149,0.725,0.224,1.22,0.224,0.853,0.00001,1.47-0.352,1.86-1.06,0.384-0.704,0.576-1.76,0.576-3.17-0.00001-1.17-0.203-2.01-0.608-2.5-0.384-0.512-0.96-0.768-1.73-0.768m-0.768,13.8c-0.107,0.00001-0.203,0.00001-0.288,0-0.0853-0.0213-0.181-0.0427-0.288-0.064-0.469,0.363-0.875,0.8-1.22,1.31-0.341,0.512-0.512,1.03-0.512,1.57,0,0.256,0.032,0.48,0.096,0.672,0.0853,0.213,0.224,0.395,0.416,0.544s0.459,0.267,0.8,0.352c0.363,0.0853,0.821,0.128,1.38,0.128,0.576,0,1.07-0.0747,1.47-0.224,0.405-0.149,0.736-0.352,0.992-0.608,0.277-0.235,0.48-0.501,0.608-0.8,0.128-0.277,0.192-0.555,0.192-0.832-0.00001-0.363-0.064-0.661-0.192-0.896-0.107-0.235-0.299-0.427-0.576-0.576-0.277-0.171-0.651-0.299-1.12-0.384-0.469-0.0853-1.06-0.149-1.76-0.192"/>
</g>
<g style="letter-spacing:0px;word-spacing:0px;" font-family="Sans" font-size="32px" line-height="80.00000119%" font-style="normal" font-weight="normal" fill="#1a1a1a">
<path style="text-align:center;" d="m148,203c0.832,0.00002,1.5,0.064,2.02,0.192,0.533,0.128,0.949,0.288,1.25,0.48,0.299,0.171,0.501,0.363,0.608,0.576s0.16,0.395,0.16,0.544c-0.00001,0.448-0.192,0.885-0.576,1.31-0.917-0.555-1.96-0.832-3.14-0.832-0.747,0.00002-1.35,0.139-1.82,0.416-0.469,0.256-0.704,0.629-0.704,1.12-0.00001,0.299,0.0747,0.597,0.224,0.896,0.149,0.277,0.501,0.64,1.06,1.09l2.98,2.4c0.683,0.683,1.16,1.32,1.44,1.92,0.299,0.576,0.448,1.27,0.448,2.08-0.00001,1.43-0.469,2.53-1.41,3.3-0.939,0.768-2.23,1.15-3.87,1.15-1.15,0-2.09-0.128-2.82-0.384-0.725-0.277-1.09-0.693-1.09-1.25,0-0.192,0.032-0.416,0.096-0.672s0.181-0.533,0.352-0.832c0.917,0.533,1.98,0.8,3.2,0.8,0.811,0,1.44-0.171,1.89-0.512,0.469-0.341,0.704-0.832,0.704-1.47-0.00001-0.427-0.096-0.843-0.288-1.25-0.171-0.405-0.501-0.821-0.992-1.25l-3.1-2.66c-0.725-0.597-1.22-1.17-1.47-1.73-0.235-0.576-0.352-1.13-0.352-1.66,0-1.11,0.416-2.02,1.25-2.72,0.853-0.704,2.18-1.06,3.97-1.06"/>
<path style="text-align:center;" d="m162,204c-0.00001,0.171-0.0213,0.384-0.064,0.64s-0.117,0.523-0.224,0.8c-0.256-0.149-0.587-0.277-0.992-0.384-0.405-0.128-0.821-0.192-1.25-0.192-0.384,0.00002-0.768,0.064-1.15,0.192-0.363,0.128-0.693,0.416-0.992,0.864-0.299,0.427-0.544,1.07-0.736,1.92-0.192,0.832-0.288,1.96-0.288,3.39-0.00001,1.13,0.0533,2.06,0.16,2.78,0.128,0.725,0.309,1.3,0.544,1.73,0.235,0.427,0.523,0.725,0.864,0.896,0.363,0.171,0.789,0.256,1.28,0.256,0.512,0,0.992-0.0747,1.44-0.224,0.448-0.171,0.811-0.341,1.09-0.512,0.0853,0.299,0.149,0.555,0.192,0.768,0.0426,0.213,0.064,0.427,0.064,0.64-0.00001,0.427-0.331,0.811-0.992,1.15-0.661,0.32-1.53,0.48-2.59,0.48-0.768,0-1.45-0.096-2.05-0.288-0.576-0.192-1.07-0.576-1.47-1.15-0.405-0.576-0.715-1.39-0.928-2.43-0.213-1.05-0.32-2.41-0.32-4.1,0-1.92,0.171-3.45,0.512-4.58,0.363-1.15,0.821-2.03,1.38-2.62,0.555-0.619,1.17-1.01,1.86-1.18,0.683-0.192,1.35-0.288,2.02-0.288,0.747,0.00002,1.38,0.139,1.89,0.416,0.512,0.256,0.768,0.597,0.768,1.02"/>
<path style="text-align:center;" d="m164,204c0-0.171,0.0213-0.331,0.064-0.48,0.064-0.171,0.16-0.309,0.288-0.416,0.277-0.171,0.853-0.352,1.73-0.544,0.875-0.213,1.92-0.32,3.14-0.32,1.39,0.00002,2.39,0.288,3.01,0.864,0.64,0.576,0.96,1.59,0.96,3.04v1.7c-0.00001,0.917-0.00001,1.85,0,2.78-0.00001,0.917-0.0107,1.81-0.032,2.69-0.0214,0.853-0.0427,1.66-0.064,2.43-0.0214,0.768-0.0533,1.45-0.096,2.05-0.427,0.256-1.01,0.501-1.76,0.736-0.747,0.235-1.64,0.352-2.69,0.352-0.576,0-1.14-0.0427-1.7-0.128-0.555-0.0853-1.05-0.299-1.47-0.64-0.427-0.341-0.768-0.832-1.02-1.47-0.256-0.661-0.384-1.54-0.384-2.62,0-1.11,0.117-2.01,0.352-2.69,0.256-0.683,0.576-1.22,0.96-1.6,0.405-0.384,0.864-0.64,1.38-0.768,0.512-0.128,1.03-0.192,1.57-0.192,0.363,0.00001,0.757,0.032,1.18,0.096,0.448,0.0427,0.832,0.149,1.15,0.32v-2.53c-0.00001-0.747-0.171-1.25-0.512-1.5-0.341-0.256-0.832-0.384-1.47-0.384-0.811,0.00002-1.6,0.0747-2.37,0.224-0.768,0.128-1.39,0.288-1.86,0.48-0.149-0.256-0.245-0.512-0.288-0.768-0.0427-0.277-0.064-0.512-0.064-0.704m6.56,7.01c-0.213-0.107-0.459-0.181-0.736-0.224-0.277-0.0427-0.533-0.064-0.768-0.064-0.32,0.00001-0.629,0.0427-0.928,0.128-0.277,0.064-0.523,0.213-0.736,0.448s-0.384,0.565-0.512,0.992c-0.128,0.405-0.192,0.96-0.192,1.66-0.00001,0.576,0.0427,1.05,0.128,1.41,0.107,0.363,0.245,0.651,0.416,0.864,0.192,0.192,0.416,0.32,0.672,0.384s0.544,0.096,0.864,0.096c0.363,0,0.693-0.0533,0.992-0.16,0.32-0.107,0.555-0.235,0.704-0.384,0.0213-0.256,0.032-0.587,0.032-0.992,0.0213-0.427,0.032-0.875,0.032-1.34,0.0213-0.469,0.032-0.949,0.032-1.44-0.00001-0.491-0.00001-0.949,0-1.38"/>
<path style="text-align:center;" d="m178,219c-0.00001,0.128-0.0213,0.235-0.064,0.32-0.0213,0.064-0.117,0.117-0.288,0.16-0.149,0.0213-0.405,0.032-0.768,0.032h-1.47v-22.3c0-0.299,0.032-0.523,0.096-0.672,0.0853-0.171,0.224-0.288,0.416-0.352,0.192-0.0853,0.459-0.128,0.8-0.128,0.341-0.0213,0.768-0.032,1.28-0.032v23"/>
<path style="text-align:center;" d="m186,203c2.71,0.00002,4.06,1.72,4.06,5.15-0.00001,0.704-0.032,1.43-0.096,2.18-0.0427,0.747-0.128,1.41-0.256,1.98-0.555,0.107-1.14,0.192-1.76,0.256-0.619,0.064-1.24,0.117-1.86,0.16-0.597,0.0427-1.16,0.0747-1.7,0.096-0.533,0.00001-0.992,0.00001-1.38,0,0.0213,0.853,0.096,1.56,0.224,2.11,0.149,0.555,0.341,0.992,0.576,1.31,0.235,0.32,0.533,0.544,0.896,0.672s0.789,0.192,1.28,0.192c0.64,0,1.27-0.0853,1.89-0.256,0.619-0.192,1.21-0.437,1.76-0.736,0.0853,0.235,0.139,0.523,0.16,0.864,0.0427,0.341,0.064,0.64,0.064,0.896-0.00001,0.256-0.117,0.491-0.352,0.704s-0.555,0.405-0.96,0.576c-0.405,0.149-0.875,0.267-1.41,0.352-0.533,0.0853-1.1,0.128-1.7,0.128-0.747,0-1.44-0.096-2.08-0.288-0.619-0.192-1.15-0.555-1.6-1.09-0.448-0.555-0.8-1.32-1.06-2.3-0.256-0.981-0.384-2.25-0.384-3.81,0-2.01,0.16-3.61,0.48-4.8,0.341-1.22,0.768-2.14,1.28-2.78,0.533-0.64,1.14-1.06,1.82-1.25,0.683-0.213,1.38-0.32,2.08-0.32m-0.288,2.27c-0.32,0.00002-0.629,0.0853-0.928,0.256-0.299,0.149-0.576,0.437-0.832,0.864-0.235,0.405-0.437,0.96-0.608,1.66-0.149,0.683-0.245,1.57-0.288,2.66,0.299,0.00001,0.64,0.00001,1.02,0,0.384,0.00001,0.768-0.0107,1.15-0.032,0.405-0.0427,0.789-0.0853,1.15-0.128,0.384-0.0427,0.715-0.107,0.992-0.192,0.064-0.299,0.107-0.619,0.128-0.96,0.0213-0.341,0.032-0.661,0.032-0.96-0.0213-1.15-0.16-1.96-0.416-2.43-0.256-0.491-0.725-0.736-1.41-0.736"/>
<path style="text-align:center;" d="m137,222c1.43,0.00002,2.58,0.16,3.46,0.48,0.896,0.299,1.34,0.64,1.34,1.02-0.00001,0.299-0.064,0.64-0.192,1.02-0.107,0.363-0.256,0.661-0.448,0.896-0.619-0.427-1.24-0.715-1.86-0.864-0.597-0.171-1.26-0.256-1.98-0.256-0.405,0.00002-0.789,0.032-1.15,0.096-0.341,0.0427-0.651,0.149-0.928,0.32-0.256,0.171-0.459,0.416-0.608,0.736s-0.224,0.747-0.224,1.28c-0.00001,0.576,0.181,1.31,0.544,2.21,0.363,0.896,0.843,1.87,1.44,2.91,0.597,1.05,1.27,2.11,2.02,3.2,0.747,1.09,1.5,2.12,2.27,3.1,0.107-0.555,0.171-1.08,0.192-1.57,0.0427-0.512,0.064-0.949,0.064-1.31-0.00001-1.69-0.192-3.04-0.576-4.06-0.363-1.02-0.811-1.86-1.34-2.5,0.277-0.064,0.587-0.107,0.928-0.128,0.363-0.0427,0.715-0.064,1.06-0.064,0.341-0.0213,0.661-0.032,0.96-0.032,0.299-0.0213,0.544-0.032,0.736-0.032,0.491,0.00002,0.928,0.0107,1.31,0.032,0.405,0.00002,0.789,0.0213,1.15,0.064,0.0213,0.0427,0.0426,0.16,0.064,0.352,0.0213,0.171,0.032,0.373,0.032,0.608-0.00002,0.32-0.0747,0.597-0.224,0.832-0.149,0.213-0.523,0.32-1.12,0.32h-1.57c0.107,0.192,0.224,0.416,0.352,0.672s0.245,0.576,0.352,0.96c0.128,0.384,0.224,0.843,0.288,1.38,0.0853,0.533,0.128,1.17,0.128,1.92-0.00002,0.619-0.0534,1.37-0.16,2.24-0.107,0.875-0.32,1.76-0.64,2.66,0.533,0.597,1.02,1.1,1.47,1.5,0.469,0.405,0.864,0.683,1.18,0.832-0.0214,0.256-0.096,0.512-0.224,0.768s-0.277,0.48-0.448,0.672c-0.149,0.192-0.32,0.341-0.512,0.448-0.192,0.128-0.363,0.192-0.512,0.192-0.171,0-0.469-0.181-0.896-0.544-0.405-0.363-0.885-0.853-1.44-1.47-0.533,0.597-1.18,1.09-1.95,1.47-0.768,0.363-1.71,0.544-2.82,0.544-1.17,0-2.14-0.16-2.91-0.48-0.768-0.32-1.38-0.747-1.82-1.28-0.448-0.533-0.768-1.14-0.96-1.82-0.171-0.704-0.256-1.43-0.256-2.18,0-0.661,0.096-1.29,0.288-1.89,0.192-0.597,0.448-1.15,0.768-1.66,0.341-0.512,0.725-0.971,1.15-1.38,0.448-0.427,0.907-0.789,1.38-1.09-0.747-1.28-1.35-2.5-1.82-3.65-0.448-1.17-0.672-2.2-0.672-3.07,0-1.45,0.469-2.55,1.41-3.3,0.939-0.747,2.25-1.12,3.94-1.12m2.59,18.9c-0.704-0.853-1.43-1.78-2.18-2.78-0.725-1-1.43-2.04-2.11-3.1-0.619,0.448-1.12,1.01-1.5,1.7-0.363,0.661-0.544,1.49-0.544,2.5-0.00001,0.405,0.0427,0.8,0.128,1.18,0.107,0.384,0.277,0.736,0.512,1.06,0.256,0.299,0.576,0.544,0.96,0.736,0.405,0.171,0.907,0.256,1.5,0.256,0.768,0,1.41-0.139,1.92-0.416,0.533-0.299,0.971-0.672,1.31-1.12"/>
<path style="text-align:center;" d="m152,230c1.34-0.853,2.9-1.28,4.67-1.28,0.789,0.00002,1.5,0.107,2.14,0.32,0.64,0.192,1.18,0.544,1.63,1.06,0.469,0.491,0.821,1.17,1.06,2.05,0.256,0.853,0.384,1.93,0.384,3.23-0.00001,2.15-0.149,3.89-0.448,5.22-0.277,1.3-0.651,2.3-1.12,3.01-0.469,0.704-0.992,1.17-1.57,1.41-0.555,0.235-1.1,0.352-1.63,0.352-0.597,0-1.11-0.096-1.54-0.288-0.427-0.171-0.757-0.373-0.992-0.608v6.66c-0.213,0.0853-0.437,0.139-0.672,0.16-0.235,0.0427-0.459,0.064-0.672,0.064-0.448,0-0.768-0.0853-0.96-0.256-0.192-0.149-0.288-0.437-0.288-0.864v-20.2m2.59,12c0.235,0.363,0.501,0.629,0.8,0.8s0.608,0.256,0.928,0.256c0.256,0,0.533-0.064,0.832-0.192,0.32-0.149,0.608-0.48,0.864-0.992,0.277-0.512,0.512-1.25,0.704-2.21,0.192-0.981,0.288-2.3,0.288-3.97-0.00001-0.96-0.0533-1.74-0.16-2.34-0.107-0.597-0.267-1.07-0.48-1.41-0.192-0.363-0.448-0.608-0.768-0.736-0.299-0.128-0.651-0.192-1.06-0.192-0.725,0.00002-1.38,0.203-1.95,0.608v10.4"/>
<path style="text-align:center;" d="m167,244c-0.00001,0.128-0.0213,0.235-0.064,0.32-0.0213,0.064-0.117,0.117-0.288,0.16-0.171,0.0213-0.437,0.032-0.8,0.032h-1.5v-14.8c0-0.299,0.032-0.523,0.096-0.672,0.0853-0.171,0.224-0.288,0.416-0.352,0.213-0.0853,0.491-0.128,0.832-0.128,0.341-0.0213,0.779-0.032,1.31-0.032v15.5m-2.62-20.6c0.0213-0.576,0.149-1.03,0.384-1.38,0.235-0.363,0.608-0.544,1.12-0.544,0.491,0.00002,0.832,0.139,1.02,0.416,0.192,0.277,0.277,0.757,0.256,1.44-0.00001,0.661-0.128,1.17-0.384,1.54-0.235,0.363-0.597,0.544-1.09,0.544-0.427,0.00002-0.757-0.149-0.992-0.448-0.213-0.299-0.32-0.821-0.32-1.57"/>
<path style="text-align:center;" d="m170,229c0.32-0.128,0.683-0.256,1.09-0.384,0.405-0.149,0.832-0.267,1.28-0.352,0.448-0.107,0.896-0.192,1.34-0.256,0.469-0.064,0.917-0.096,1.34-0.096,1.69,0.00002,2.86,0.331,3.52,0.992,0.661,0.64,0.992,1.74,0.992,3.3v11.5c-0.00001,0.128-0.0213,0.235-0.064,0.32-0.0213,0.064-0.117,0.117-0.288,0.16-0.171,0.0213-0.437,0.032-0.8,0.032h-1.54v-11.3c-0.00001-1.02-0.117-1.74-0.352-2.14-0.235-0.427-0.757-0.64-1.57-0.64-0.341,0.00002-0.736,0.0533-1.18,0.16-0.427,0.0854-0.821,0.224-1.18,0.416v13c-0.00001,0.128-0.0213,0.235-0.064,0.32-0.0213,0.064-0.117,0.117-0.288,0.16-0.171,0.0213-0.427,0.032-0.768,0.032h-1.47v-15.2"/>
<path style="text-align:center;" d="m190,230c-0.00001,0.171-0.0213,0.384-0.064,0.64s-0.117,0.523-0.224,0.8c-0.256-0.149-0.587-0.277-0.992-0.384-0.405-0.128-0.821-0.192-1.25-0.192-0.384,0.00002-0.768,0.064-1.15,0.192-0.363,0.128-0.693,0.416-0.992,0.864-0.299,0.427-0.544,1.07-0.736,1.92-0.192,0.832-0.288,1.96-0.288,3.39-0.00001,1.13,0.0533,2.06,0.16,2.78,0.128,0.725,0.309,1.3,0.544,1.73,0.235,0.427,0.523,0.725,0.864,0.896,0.363,0.171,0.789,0.256,1.28,0.256,0.512,0,0.992-0.0747,1.44-0.224,0.448-0.171,0.811-0.341,1.09-0.512,0.0853,0.299,0.149,0.555,0.192,0.768,0.0426,0.213,0.064,0.427,0.064,0.64-0.00001,0.427-0.331,0.811-0.992,1.15-0.661,0.32-1.53,0.48-2.59,0.48-0.768,0-1.45-0.096-2.05-0.288-0.576-0.192-1.07-0.576-1.47-1.15-0.405-0.576-0.715-1.39-0.928-2.43-0.213-1.05-0.32-2.41-0.32-4.1,0-1.92,0.171-3.45,0.512-4.58,0.363-1.15,0.821-2.03,1.38-2.62,0.555-0.619,1.17-1.01,1.86-1.18,0.683-0.192,1.35-0.288,2.02-0.288,0.747,0.00002,1.38,0.139,1.89,0.416,0.512,0.256,0.768,0.597,0.768,1.02"/>
<path style="text-align:center;" d="m192,222c0-0.299,0.032-0.523,0.096-0.672,0.064-0.171,0.192-0.288,0.384-0.352,0.192-0.0853,0.459-0.128,0.8-0.128,0.341-0.0213,0.779-0.032,1.31-0.032v8.45c0.491-0.427,1.06-0.736,1.7-0.928,0.64-0.213,1.27-0.32,1.89-0.32,0.683,0.00002,1.24,0.096,1.66,0.288,0.448,0.192,0.789,0.469,1.02,0.832,0.256,0.341,0.427,0.779,0.512,1.31,0.0853,0.533,0.128,1.13,0.128,1.79v11.6c-0.00001,0.128-0.0213,0.235-0.064,0.32-0.0427,0.064-0.149,0.117-0.32,0.16-0.171,0.0213-0.437,0.032-0.8,0.032h-1.5v-11.4c-0.00001-0.341-0.0213-0.672-0.064-0.992s-0.128-0.587-0.256-0.8c-0.128-0.235-0.32-0.416-0.576-0.544-0.235-0.149-0.544-0.224-0.928-0.224-0.363,0.00002-0.757,0.064-1.18,0.192-0.427,0.128-0.832,0.363-1.22,0.704v12.5c-0.00001,0.128-0.0213,0.235-0.064,0.32-0.0213,0.064-0.117,0.117-0.288,0.16-0.149,0.0213-0.405,0.032-0.768,0.032h-1.47v-22.3"/>
</g>
<g style="letter-spacing:0px;word-spacing:0px;" font-family="Sans" font-size="32px" line-height="125%" font-style="normal" font-weight="normal" fill="#1a1a1a">
<path d="m16.1,212c-0.000001-0.299,0.032-0.523,0.096-0.672,0.064-0.171,0.192-0.288,0.384-0.352,0.192-0.0853,0.459-0.128,0.8-0.128,0.341-0.0213,0.779-0.032,1.31-0.032v8.45c0.491-0.427,1.06-0.736,1.7-0.928,0.64-0.213,1.27-0.32,1.89-0.32,0.683,0.00002,1.24,0.096,1.66,0.288,0.448,0.192,0.789,0.469,1.02,0.832,0.256,0.341,0.427,0.779,0.512,1.31,0.0853,0.533,0.128,1.13,0.128,1.79v11.6c-0.00001,0.128-0.0213,0.235-0.064,0.32-0.0427,0.064-0.149,0.117-0.32,0.16-0.171,0.0213-0.437,0.032-0.8,0.032h-1.5v-11.4c-0.000008-0.341-0.0213-0.672-0.064-0.992s-0.128-0.587-0.256-0.8c-0.128-0.235-0.32-0.416-0.576-0.544-0.235-0.149-0.544-0.224-0.928-0.224-0.363,0.00001-0.757,0.064-1.18,0.192-0.427,0.128-0.832,0.363-1.22,0.704v12.5c-0.000004,0.128-0.0213,0.235-0.064,0.32-0.0213,0.064-0.117,0.117-0.288,0.16-0.149,0.0213-0.405,0.032-0.768,0.032h-1.47v-22.3"/>
<path d="m27.6,227c0-2.92,0.459-5.03,1.38-6.34,0.939-1.32,2.25-1.98,3.94-1.98,0.832,0.00002,1.56,0.128,2.18,0.384,0.64,0.235,1.16,0.672,1.57,1.31,0.405,0.619,0.704,1.46,0.896,2.53,0.213,1.05,0.32,2.38,0.32,4-0.000011,2.99-0.448,5.14-1.34,6.46-0.896,1.3-2.2,1.95-3.9,1.95-0.832,0-1.56-0.096-2.18-0.288-0.619-0.192-1.14-0.576-1.57-1.15-0.427-0.597-0.747-1.44-0.96-2.53-0.213-1.11-0.32-2.56-0.32-4.35m2.82,0.064c-0.000003,1.32,0.0427,2.38,0.128,3.17,0.107,0.789,0.256,1.4,0.448,1.82,0.192,0.427,0.427,0.715,0.704,0.864,0.299,0.128,0.629,0.192,0.992,0.192,0.341,0,0.651-0.0853,0.928-0.256,0.299-0.171,0.555-0.491,0.768-0.96s0.373-1.1,0.48-1.89c0.128-0.789,0.192-1.81,0.192-3.07-0.000008-1.28-0.0533-2.3-0.16-3.07-0.0853-0.789-0.224-1.4-0.416-1.82-0.171-0.427-0.395-0.715-0.672-0.864s-0.608-0.224-0.992-0.224c-0.363,0.00001-0.693,0.0853-0.992,0.256-0.277,0.171-0.523,0.48-0.736,0.928s-0.384,1.08-0.512,1.89c-0.107,0.789-0.16,1.8-0.16,3.04"/>
<path d="m42.6,234c-0.000004,0.128-0.0213,0.235-0.064,0.32-0.0213,0.064-0.117,0.117-0.288,0.16-0.149,0.0213-0.405,0.032-0.768,0.032h-1.47v-22.3c-0.000001-0.299,0.032-0.523,0.096-0.672,0.0853-0.171,0.224-0.288,0.416-0.352,0.192-0.0853,0.459-0.128,0.8-0.128,0.341-0.0213,0.768-0.032,1.28-0.032v23"/>
<path d="m52.4,221c-0.213-0.171-0.427-0.277-0.64-0.32-0.213-0.064-0.491-0.096-0.832-0.096-0.363,0.00001-0.715,0.0853-1.06,0.256-0.32,0.171-0.619,0.491-0.896,0.96-0.256,0.448-0.469,1.09-0.64,1.92-0.149,0.832-0.224,1.9-0.224,3.2-0.000003,1.19,0.0533,2.17,0.16,2.91,0.107,0.747,0.267,1.33,0.48,1.76,0.213,0.405,0.459,0.683,0.736,0.832,0.299,0.128,0.64,0.192,1.02,0.192,0.363,0,0.704-0.032,1.02-0.096,0.32-0.0853,0.608-0.213,0.864-0.384v-11.1m0-8.7c-0.000008-0.299,0.032-0.523,0.096-0.672,0.0853-0.171,0.224-0.288,0.416-0.352,0.192-0.0853,0.448-0.128,0.768-0.128,0.341-0.0213,0.779-0.032,1.31-0.032v22.9c-0.533,0.256-1.18,0.48-1.95,0.672-0.747,0.192-1.62,0.288-2.62,0.288-0.704,0-1.38-0.0853-2.02-0.256-0.619-0.149-1.17-0.491-1.66-1.02-0.469-0.533-0.843-1.31-1.12-2.34-0.277-1.02-0.416-2.4-0.416-4.13-0.000001-1.58,0.128-2.93,0.384-4.06s0.608-2.05,1.06-2.75c0.448-0.725,0.971-1.25,1.57-1.57,0.597-0.341,1.24-0.512,1.92-0.512,0.96,0.00002,1.72,0.213,2.27,0.64v-6.66"/>
</g>
</svg>
