<!-- Created with Inkscape (http://www.inkscape.org/) -->
<svg xmlns:rdf="http://www.w3.org/1999/02/22-rdf-syntax-ns#" xmlns="http://www.w3.org/2000/svg" version="1.1" xmlns:cc="http://creativecommons.org/ns#" xmlns:xlink="http://www.w3.org/1999/xlink" viewBox="0 0 330 330" xmlns:dc="http://purl.org/dc/elements/1.1/">
<defs>
<radialGradient id="radialGradient3209" gradientUnits="userSpaceOnUse" cy="472.5" cx="137.6" gradientTransform="matrix(1,0,0,0.10599078,0,422.38536)" r="140.2">
<stop stop-color="#000" stop-opacity="0.65071768" offset="0"/>
<stop stop-color="#000" stop-opacity="0" offset="1"/>
</radialGradient>
<radialGradient id="radialGradient3211" gradientUnits="userSpaceOnUse" cy="-104.9" cx="76.25" gradientTransform="matrix(0.3642593,1.300038,-1.2734026,0.35679626,-85.079426,-166.58137)" r="108.6">
<stop stop-color="#F95" offset="0"/>
<stop stop-color="#F60" offset="0.5"/>
<stop stop-color="#a14d2b" offset="1"/>
</radialGradient>
<linearGradient id="linearGradient3213" y2="25.64" gradientUnits="userSpaceOnUse" x2="613.7" gradientTransform="translate(-357.97038,16.800054)" y1="205.3" x1="400.5">
<stop stop-color="#0a0400" stop-opacity="0.74901961" offset="0"/>
<stop stop-color="#4d4d4d" offset="0.5"/>
<stop stop-color="#2b1100" offset="1"/>
</linearGradient>
</defs>
<metadata>
<rdf:RDF>
<cc:Work rdf:about="">
<dc:format>image/svg+xml</dc:format>
<dc:type rdf:resource="http://purl.org/dc/dcmitype/StillImage"/>
<dc:title/>
</cc:Work>
</rdf:RDF>
</metadata>
<g transform="translate(0,-722.36218)">
<g transform="matrix(1.0363487,0,0,1.0363487,-57.392347,265.26986)">
<path opacity="0.7" d="m277.8,472.5c0,8.208-62.78,14.86-140.2,14.86-77.44,0-140.2-6.654-140.2-14.86,0-8.208,62.78-14.86,140.2-14.86,77.44,0,140.2,6.654,140.2,14.86z" transform="matrix(0.95494085,0,0,1.1452957,87.607981,196.0519)" fill="url(#radialGradient3209)"/>
<g transform="translate(46.59166,426.85821)">
<path d="m169.3-82.59c0,59.95-48.6,108.6-108.6,108.6-59.95,0-108.6-48.6-108.6-108.6,0-59.95,48.6-108.6,108.6-108.6,59.95,0,108.6,48.6,108.6,108.6z" transform="matrix(1.3333334,0,0,1.3333334,87.015662,274.36021)" fill="url(#radialGradient3211)"/>
<path fill="url(#linearGradient3213)" d="m135.6,23.14c-2.22,0.5078-4.414,1.079-6.594,1.688-3.441,2.26-6.927,4.817-9.781,7.312-10.4,9.095-17.6,17.54-26.5,31.12-8.421,13.3-14.46,27.37-19.66,40-2.026,4.659-8.874,30.09-10.62,39.5-0.665,3.575-1.334,6.644-1.5,6.812-0.9552,0.9708-10.85-3.456-14.72-6.594-5.847-4.743-8.142-8.197-10.84-16.22-1.885-5.596-2.084-7.832-1.594-16.72-1.552,3.84-2.964,7.755-4.188,11.75,0.00014,0.0106-0.00015,0.0206,0,0.0312,0.01435,1.012,0.06845,1.973,0.1562,2.844,1.956,15.89,13.94,26.69,30.91,33.34,0.2488,0.6875,0.0757,4.85-0.375,9.25s-0.5735,12.48-0.2812,17.94c0.433,8.083,0.2839,9.722-0.7812,8.875-11.9-3.012-25.12-6.218-34.75-11.09,0.4217,3.261,0.9586,6.498,1.594,9.688,1.611,0.7158,3.483,1.39,5.688,2.062,9.211,3.099,20.3,5.808,28.28,8.188,0.145,11.13,2.296,17.1,3.656,27.75l0.4062,3.375-9.156-0.5312c-5.051-0.3013-9.848-0.1484-10.62,0.3438-1.197,0.7576-1.176,0.8976,0.09375,0.9375,1.217,0.0382,1.169,0.2975-0.25,1.375-0.3951,0.3-0.7687,0.7465-1.062,1.25,0.7178,1.223,1.466,2.426,2.219,3.625,0.9889-0.2155,1.189,0.0505,0.8125,1.031-0.02793,0.0728-0.03957,0.1223-0.0625,0.1875,0.1753,0.2734,0.3542,0.5404,0.5312,0.8125,0.4717-0.1135,1.226-0.408,2.344-0.875,1.874-0.783,6.512-1.438,10.31-1.438,6.79,0,6.953,0.0699,8.219,3.125,2.622,7.464,6.044,14.9,9.281,21.88,2.418,5.111,7.357,12.7,13.12,20.31,2.322,1.492,4.684,2.921,7.094,4.281-8.154-9.241-15.26-19.42-16.16-24.22-3.553-6.491-4.029-14.8-5.938-21.12-0.4027-1.324-0.2642-2.25,0.3438-2.25,0.5684,0,6.142,1.9,12.38,4.188,13.63,4.364,28.12,10.18,38.94,16.66,21.98,13.2,42.78,22.15,64.38,27.72,8.264,2.13,12.78,2.639,26,2.906,11.22,0.2267,13.16,0.1371,6.5-0.3125-7.582-0.5117-10.14-1.111-12.66-2.906-1.734-1.238-4.101-2.25-5.281-2.25-18.05-4.822-32.7-9.794-50.06-18.41-4.675-2.341-14.58-7.353-22-11.16-10.2-6.345-23.13-10.23-33.34-14.88-1.733-0.7965-8.819-3.28-15.75-5.531l-12.59-4.094-1.688-8.219c-1.804-8.802-3.708-22.95-3.156-23.5,0.1847-0.1847,3.87,0.1721,8.188,0.7812,4.317,0.6092,19.54,1.263,33.84,1.469,21.94-0.6632,47.92,0.2407,71.19-1.469,4.588-0.01,34.09-2.702,54.31-4.969,28.87-3.236,58.46-10.79,72.5-18.5,2.027-1.113,3.86-2.3,5.281-3.344,0.1748-2.01,0.3145-4.03,0.4062-6.062-0.9379-0.0975-2.886,0.6699-6.812,2.406-9.928,4.39-32.73,10.41-55.22,14.56-12.58,2.324-37.8,5.358-62.16,7.469-30.37,2.632-115,1.576-121-1.5-1.781-0.9179-2.564-17.73-1.281-27.56l0.7812-6,7.969-0.7812c10.3-1.02,23.72-5.53,35.03-11.78,41.77-30.99,85.8-61.77,132.6-79,10.94-3.8,13.83-4.384,23.81-4.875l5.688-0.2812c-1.922-1.984-3.906-3.91-5.938-5.781-0.7947-0.0071-1.665,0-2.656,0-11.67,0-26.32,3.606-40.47,9.969-29.5,12.99-56.7,30.23-81.84,48.53-9.821,7.16-19.95,14.52-22.5,16.34-6.305,4.505-18.75,10.74-24.19,12.12-2.455,0.6257-5.369,1.542-6.469,2.062-3.267,1.545-13.67,3.969-17.03,3.969h-3.125l0.8125-6.25c0.9964-7.554,3.922-24.34,6.469-31.75,10.45-30.41,35.56-73.81,60.56-89.62z"/>
</g>
</g>
</g>
</svg>
